<?xml version="1.0" encoding="UTF-8"?>
<svg xmlns="http://www.w3.org/2000/svg" width="1300" height="1450" viewBox="0 0 1300 1450">
<defs>
        <marker id="arrow" markerWidth="12" markerHeight="12" refX="10" refY="6" orient="auto" markerUnits="strokeWidth">
            <path d="M2,2 L10,6 L2,10 z" fill="#111" />
        </marker>
        <marker id="arrowGray" markerWidth="12" markerHeight="12" refX="10" refY="6" orient="auto" markerUnits="strokeWidth">
            <path d="M2,2 L10,6 L2,10 z" fill="#555" />
        </marker>
        <filter id="shadow" x="-20%" y="-20%" width="140%" height="140%">
            <feDropShadow dx="0" dy="2" stdDeviation="2" flood-color="#000" flood-opacity="0.12"/>
        </filter>
        </defs>
<rect width="100%" height="100%" fill="#fff"/>
<text x="650.0" y="42" text-anchor="middle" style="font-family:DejaVu Sans, Arial, sans-serif;font-size:25px;font-weight:700;fill:#111;"><tspan x="650.0" dy="0">Hình 2.27. Biểu đồ hoạt động chọn nguồn dữ liệu</tspan></text><line x1="80" y1="68" x2="1220" y2="68" stroke="#444" stroke-width="1" fill="none"/><circle cx="650.0" cy="120" r="18" fill="#111" stroke="#111"/><rect x="440.0" y="190" width="420" height="62" rx="16" fill="#fff" stroke="#111" stroke-width="2"/><text x="650.0" y="214.7" text-anchor="middle" style="font-family:DejaVu Sans, Arial, sans-serif;font-size:18px;font-weight:400;fill:#111;"><tspan x="650.0" dy="0">Người vận hành chọn nguồn</tspan></text><line x1="650.0" y1="138" x2="650.0" y2="190" stroke="#111" stroke-width="2" fill="none" marker-end="url(#arrow)"/><polygon points="650.0,295 805.0,345.0 650.0,395 495.0,345.0" fill="#fff" stroke="#111" stroke-width="2"/><text x="650.0" y="339.05" text-anchor="middle" style="font-family:DejaVu Sans, Arial, sans-serif;font-size:17px;font-weight:400;fill:#111;"><tspan x="650.0" dy="0">Video hay camera?</tspan></text><line x1="650.0" y1="252" x2="650.0" y2="295" stroke="#111" stroke-width="2" fill="none" marker-end="url(#arrow)"/><rect x="440.0" y="440" width="420" height="62" rx="16" fill="#fff" stroke="#111" stroke-width="2"/><text x="650.0" y="464.7" text-anchor="middle" style="font-family:DejaVu Sans, Arial, sans-serif;font-size:18px;font-weight:400;fill:#111;"><tspan x="650.0" dy="0">Kiểm tra nguồn dữ liệu</tspan></text><line x1="650.0" y1="395" x2="650.0" y2="440" stroke="#111" stroke-width="2" fill="none" marker-end="url(#arrow)"/><polygon points="650.0,545 805.0,595.0 650.0,645 495.0,595.0" fill="#fff" stroke="#111" stroke-width="2"/><text x="650.0" y="589.05" text-anchor="middle" style="font-family:DejaVu Sans, Arial, sans-serif;font-size:17px;font-weight:400;fill:#111;"><tspan x="650.0" dy="0">Nguồn hợp lệ?</tspan></text><line x1="650.0" y1="502" x2="650.0" y2="545" stroke="#111" stroke-width="2" fill="none" marker-end="url(#arrow)"/><rect x="440.0" y="690" width="420" height="62" rx="16" fill="#fff" stroke="#111" stroke-width="2"/><text x="650.0" y="714.7" text-anchor="middle" style="font-family:DejaVu Sans, Arial, sans-serif;font-size:18px;font-weight:400;fill:#111;"><tspan x="650.0" dy="0">Nạp vào bộ xử lý</tspan></text><line x1="650.0" y1="645" x2="650.0" y2="690" stroke="#111" stroke-width="2" fill="none" marker-end="url(#arrow)"/><rect x="440.0" y="795" width="420" height="62" rx="16" fill="#fff" stroke="#111" stroke-width="2"/><text x="650.0" y="819.7" text-anchor="middle" style="font-family:DejaVu Sans, Arial, sans-serif;font-size:18px;font-weight:400;fill:#111;"><tspan x="650.0" dy="0">Sẵn sàng phân tích</tspan></text><line x1="650.0" y1="752" x2="650.0" y2="795" stroke="#111" stroke-width="2" fill="none" marker-end="url(#arrow)"/><circle cx="650.0" cy="900" r="20" fill="#fff" stroke="#111" stroke-width="2"/><circle cx="650.0" cy="900" r="12" fill="#111" stroke="#111"/><line x1="650.0" y1="857" x2="650.0" y2="880" stroke="#111" stroke-width="2" fill="none" marker-end="url(#arrow)"/>
</svg>