<?xml version="1.0" encoding="UTF-8"?>
<svg xmlns="http://www.w3.org/2000/svg" width="1300" height="1700" viewBox="0 0 1300 1700">
<defs>
        <marker id="arrow" markerWidth="12" markerHeight="12" refX="10" refY="6" orient="auto" markerUnits="strokeWidth">
            <path d="M2,2 L10,6 L2,10 z" fill="#111" />
        </marker>
        <marker id="arrowGray" markerWidth="12" markerHeight="12" refX="10" refY="6" orient="auto" markerUnits="strokeWidth">
            <path d="M2,2 L10,6 L2,10 z" fill="#555" />
        </marker>
        <filter id="shadow" x="-20%" y="-20%" width="140%" height="140%">
            <feDropShadow dx="0" dy="2" stdDeviation="2" flood-color="#000" flood-opacity="0.12"/>
        </filter>
        </defs>
<rect width="100%" height="100%" fill="#fff"/>
<text x="650.0" y="42" text-anchor="middle" style="font-family:DejaVu Sans, Arial, sans-serif;font-size:25px;font-weight:700;fill:#111;"><tspan x="650.0" dy="0">Hình 2.28. Biểu đồ hoạt động phân tích video</tspan></text><line x1="80" y1="68" x2="1220" y2="68" stroke="#444" stroke-width="1" fill="none"/><circle cx="650.0" cy="120" r="18" fill="#111" stroke="#111"/><rect x="440.0" y="190" width="420" height="62" rx="16" fill="#fff" stroke="#111" stroke-width="2"/><text x="650.0" y="214.7" text-anchor="middle" style="font-family:DejaVu Sans, Arial, sans-serif;font-size:18px;font-weight:400;fill:#111;"><tspan x="650.0" dy="0">Đọc frame</tspan></text><line x1="650.0" y1="138" x2="650.0" y2="190" stroke="#111" stroke-width="2" fill="none" marker-end="url(#arrow)"/><rect x="440.0" y="295" width="420" height="62" rx="16" fill="#fff" stroke="#111" stroke-width="2"/><text x="650.0" y="319.7" text-anchor="middle" style="font-family:DejaVu Sans, Arial, sans-serif;font-size:18px;font-weight:400;fill:#111;"><tspan x="650.0" dy="0">Nhận diện phương tiện</tspan></text><line x1="650.0" y1="252" x2="650.0" y2="295" stroke="#111" stroke-width="2" fill="none" marker-end="url(#arrow)"/><rect x="440.0" y="400" width="420" height="62" rx="16" fill="#fff" stroke="#111" stroke-width="2"/><text x="650.0" y="424.7" text-anchor="middle" style="font-family:DejaVu Sans, Arial, sans-serif;font-size:18px;font-weight:400;fill:#111;"><tspan x="650.0" dy="0">Lọc xe trong ROI</tspan></text><line x1="650.0" y1="357" x2="650.0" y2="400" stroke="#111" stroke-width="2" fill="none" marker-end="url(#arrow)"/><rect x="440.0" y="505" width="420" height="62" rx="16" fill="#fff" stroke="#111" stroke-width="2"/><text x="650.0" y="529.7" text-anchor="middle" style="font-family:DejaVu Sans, Arial, sans-serif;font-size:18px;font-weight:400;fill:#111;"><tspan x="650.0" dy="0">Đếm và phân loại xe</tspan></text><line x1="650.0" y1="462" x2="650.0" y2="505" stroke="#111" stroke-width="2" fill="none" marker-end="url(#arrow)"/><rect x="440.0" y="610" width="420" height="62" rx="16" fill="#fff" stroke="#111" stroke-width="2"/><text x="650.0" y="634.7" text-anchor="middle" style="font-family:DejaVu Sans, Arial, sans-serif;font-size:18px;font-weight:400;fill:#111;"><tspan x="650.0" dy="0">Đo tốc độ nếu đủ điều kiện</tspan></text><line x1="650.0" y1="567" x2="650.0" y2="610" stroke="#111" stroke-width="2" fill="none" marker-end="url(#arrow)"/><rect x="440.0" y="715" width="420" height="62" rx="16" fill="#fff" stroke="#111" stroke-width="2"/><text x="650.0" y="739.7" text-anchor="middle" style="font-family:DejaVu Sans, Arial, sans-serif;font-size:18px;font-weight:400;fill:#111;"><tspan x="650.0" dy="0">Tính mật độ</tspan></text><line x1="650.0" y1="672" x2="650.0" y2="715" stroke="#111" stroke-width="2" fill="none" marker-end="url(#arrow)"/><rect x="440.0" y="820" width="420" height="62" rx="16" fill="#fff" stroke="#111" stroke-width="2"/><text x="650.0" y="844.7" text-anchor="middle" style="font-family:DejaVu Sans, Arial, sans-serif;font-size:18px;font-weight:400;fill:#111;"><tspan x="650.0" dy="0">Tính VSL</tspan></text><line x1="650.0" y1="777" x2="650.0" y2="820" stroke="#111" stroke-width="2" fill="none" marker-end="url(#arrow)"/><rect x="440.0" y="925" width="420" height="62" rx="16" fill="#fff" stroke="#111" stroke-width="2"/><text x="650.0" y="949.7" text-anchor="middle" style="font-family:DejaVu Sans, Arial, sans-serif;font-size:18px;font-weight:400;fill:#111;"><tspan x="650.0" dy="0">Cập nhật dashboard</tspan></text><line x1="650.0" y1="882" x2="650.0" y2="925" stroke="#111" stroke-width="2" fill="none" marker-end="url(#arrow)"/><polygon points="650.0,1030 805.0,1080.0 650.0,1130 495.0,1080.0" fill="#fff" stroke="#111" stroke-width="2"/><text x="650.0" y="1074.05" text-anchor="middle" style="font-family:DejaVu Sans, Arial, sans-serif;font-size:17px;font-weight:400;fill:#111;"><tspan x="650.0" dy="0">Video còn frame?</tspan></text><line x1="650.0" y1="987" x2="650.0" y2="1030" stroke="#111" stroke-width="2" fill="none" marker-end="url(#arrow)"/><rect x="440.0" y="1175" width="420" height="62" rx="16" fill="#fff" stroke="#111" stroke-width="2"/><text x="650.0" y="1199.7" text-anchor="middle" style="font-family:DejaVu Sans, Arial, sans-serif;font-size:18px;font-weight:400;fill:#111;"><tspan x="650.0" dy="0">Lưu kết quả</tspan></text><line x1="650.0" y1="1130" x2="650.0" y2="1175" stroke="#111" stroke-width="2" fill="none" marker-end="url(#arrow)"/><circle cx="650.0" cy="1280" r="20" fill="#fff" stroke="#111" stroke-width="2"/><circle cx="650.0" cy="1280" r="12" fill="#111" stroke="#111"/><line x1="650.0" y1="1237" x2="650.0" y2="1260" stroke="#111" stroke-width="2" fill="none" marker-end="url(#arrow)"/>
</svg>