<?xml version="1.0" encoding="UTF-8"?>
<svg xmlns="http://www.w3.org/2000/svg" width="1800" height="1250" viewBox="0 0 1800 1250">
<defs>
        <marker id="arrow" markerWidth="12" markerHeight="12" refX="10" refY="6" orient="auto" markerUnits="strokeWidth">
            <path d="M2,2 L10,6 L2,10 z" fill="#111" />
        </marker>
        <marker id="arrowGray" markerWidth="12" markerHeight="12" refX="10" refY="6" orient="auto" markerUnits="strokeWidth">
            <path d="M2,2 L10,6 L2,10 z" fill="#555" />
        </marker>
        <filter id="shadow" x="-20%" y="-20%" width="140%" height="140%">
            <feDropShadow dx="0" dy="2" stdDeviation="2" flood-color="#000" flood-opacity="0.12"/>
        </filter>
        </defs>
<rect width="100%" height="100%" fill="#fff"/>
<text x="900.0" y="42" text-anchor="middle" style="font-family:DejaVu Sans, Arial, sans-serif;font-size:25px;font-weight:700;fill:#111;"><tspan x="900.0" dy="0">Hình 2.1. Biểu đồ use-case tổng quát hệ thống VSL</tspan></text><line x1="80" y1="68" x2="1720" y2="68" stroke="#444" stroke-width="1" fill="none"/><rect x="420" y="100" width="980" height="1040" rx="4" fill="#fff" stroke="#333" stroke-width="2"/><text x="910.0" y="612.3" text-anchor="middle" style="font-family:DejaVu Sans, Arial, sans-serif;font-size:22px;font-weight:700;fill:#111;"><tspan x="910.0" dy="0">Hệ thống biển báo tốc độ linh hoạt VSL</tspan></text><circle cx="160" cy="148.0" r="18.0" fill="#fff" stroke="#111" stroke-width="2"/><line x1="160" y1="166.0" x2="160" y2="198.39999999999998" stroke="#111" stroke-width="2" fill="none"/><line x1="126.0" y1="180.4" x2="194.0" y2="180.4" stroke="#111" stroke-width="2" fill="none"/><line x1="160" y1="198.39999999999998" x2="132.0" y2="223.60000000000002" stroke="#111" stroke-width="2" fill="none"/><line x1="160" y1="198.39999999999998" x2="188.0" y2="223.60000000000002" stroke="#111" stroke-width="2" fill="none"/><text x="160" y="239.8" text-anchor="middle" style="font-family:DejaVu Sans, Arial, sans-serif;font-size:18px;font-weight:600;fill:#111;"><tspan x="160" dy="0">Quản trị viên</tspan></text><circle cx="160" cy="448.0" r="18.0" fill="#fff" stroke="#111" stroke-width="2"/><line x1="160" y1="466.0" x2="160" y2="498.4" stroke="#111" stroke-width="2" fill="none"/><line x1="126.0" y1="480.4" x2="194.0" y2="480.4" stroke="#111" stroke-width="2" fill="none"/><line x1="160" y1="498.4" x2="132.0" y2="523.6" stroke="#111" stroke-width="2" fill="none"/><line x1="160" y1="498.4" x2="188.0" y2="523.6" stroke="#111" stroke-width="2" fill="none"/><text x="160" y="539.8" text-anchor="middle" style="font-family:DejaVu Sans, Arial, sans-serif;font-size:18px;font-weight:600;fill:#111;"><tspan x="160" dy="0">Người vận</tspan><tspan x="160" dy="22.5">hành</tspan></text><circle cx="160" cy="778.0" r="18.0" fill="#fff" stroke="#111" stroke-width="2"/><line x1="160" y1="796.0" x2="160" y2="828.4" stroke="#111" stroke-width="2" fill="none"/><line x1="126.0" y1="810.4" x2="194.0" y2="810.4" stroke="#111" stroke-width="2" fill="none"/><line x1="160" y1="828.4" x2="132.0" y2="853.6" stroke="#111" stroke-width="2" fill="none"/><line x1="160" y1="828.4" x2="188.0" y2="853.6" stroke="#111" stroke-width="2" fill="none"/><text x="160" y="869.8" text-anchor="middle" style="font-family:DejaVu Sans, Arial, sans-serif;font-size:18px;font-weight:600;fill:#111;"><tspan x="160" dy="0">Người kiểm</tspan><tspan x="160" dy="22.5">thử</tspan></text><circle cx="1640" cy="198.0" r="18.0" fill="#fff" stroke="#111" stroke-width="2"/><line x1="1640" y1="216.0" x2="1640" y2="248.39999999999998" stroke="#111" stroke-width="2" fill="none"/><line x1="1606.0" y1="230.4" x2="1674.0" y2="230.4" stroke="#111" stroke-width="2" fill="none"/><line x1="1640" y1="248.39999999999998" x2="1612.0" y2="273.6" stroke="#111" stroke-width="2" fill="none"/><line x1="1640" y1="248.39999999999998" x2="1668.0" y2="273.6" stroke="#111" stroke-width="2" fill="none"/><text x="1640" y="289.8" text-anchor="middle" style="font-family:DejaVu Sans, Arial, sans-serif;font-size:18px;font-weight:600;fill:#111;"><tspan x="1640" dy="0">Camera/Video</tspan></text><circle cx="1640" cy="518.0" r="18.0" fill="#fff" stroke="#111" stroke-width="2"/><line x1="1640" y1="536.0" x2="1640" y2="568.4" stroke="#111" stroke-width="2" fill="none"/><line x1="1606.0" y1="550.4" x2="1674.0" y2="550.4" stroke="#111" stroke-width="2" fill="none"/><line x1="1640" y1="568.4" x2="1612.0" y2="593.6" stroke="#111" stroke-width="2" fill="none"/><line x1="1640" y1="568.4" x2="1668.0" y2="593.6" stroke="#111" stroke-width="2" fill="none"/><text x="1640" y="609.8" text-anchor="middle" style="font-family:DejaVu Sans, Arial, sans-serif;font-size:18px;font-weight:600;fill:#111;"><tspan x="1640" dy="0">Mô hình AI</tspan></text><circle cx="1640" cy="848.0" r="18.0" fill="#fff" stroke="#111" stroke-width="2"/><line x1="1640" y1="866.0" x2="1640" y2="898.4" stroke="#111" stroke-width="2" fill="none"/><line x1="1606.0" y1="880.4" x2="1674.0" y2="880.4" stroke="#111" stroke-width="2" fill="none"/><line x1="1640" y1="898.4" x2="1612.0" y2="923.6" stroke="#111" stroke-width="2" fill="none"/><line x1="1640" y1="898.4" x2="1668.0" y2="923.6" stroke="#111" stroke-width="2" fill="none"/><text x="1640" y="939.8" text-anchor="middle" style="font-family:DejaVu Sans, Arial, sans-serif;font-size:18px;font-weight:600;fill:#111;"><tspan x="1640" dy="0">Biển báo điện</tspan><tspan x="1640" dy="22.5">tử giả lập</tspan></text><ellipse cx="635.0" cy="199.0" rx="115.0" ry="29.0" fill="#fff" stroke="#111" stroke-width="2"/><text x="635.0" y="192.7" text-anchor="middle" style="font-family:DejaVu Sans, Arial, sans-serif;font-size:18px;font-weight:400;fill:#111;"><tspan x="635.0" dy="0">Tạo tài khoản quản</tspan><tspan x="635.0" dy="22.5">trị</tspan></text><ellipse cx="920.0" cy="199.0" rx="100.0" ry="29.0" fill="#fff" stroke="#111" stroke-width="2"/><text x="920.0" y="192.7" text-anchor="middle" style="font-family:DejaVu Sans, Arial, sans-serif;font-size:18px;font-weight:400;fill:#111;"><tspan x="920.0" dy="0">Đăng nhập</tspan></text><ellipse cx="635.0" cy="314.0" rx="115.0" ry="29.0" fill="#fff" stroke="#111" stroke-width="2"/><text x="635.0" y="307.7" text-anchor="middle" style="font-family:DejaVu Sans, Arial, sans-serif;font-size:18px;font-weight:400;fill:#111;"><tspan x="635.0" dy="0">Chọn video/camera</tspan></text><ellipse cx="920.0" cy="314.0" rx="100.0" ry="29.0" fill="#fff" stroke="#111" stroke-width="2"/><text x="920.0" y="307.7" text-anchor="middle" style="font-family:DejaVu Sans, Arial, sans-serif;font-size:18px;font-weight:400;fill:#111;"><tspan x="920.0" dy="0">Quản lý camera</tspan></text><ellipse cx="1195.0" cy="314.0" rx="105.0" ry="29.0" fill="#fff" stroke="#111" stroke-width="2"/><text x="1195.0" y="307.7" text-anchor="middle" style="font-family:DejaVu Sans, Arial, sans-serif;font-size:18px;font-weight:400;fill:#111;"><tspan x="1195.0" dy="0">Cấu hình ROI</tspan></text><ellipse cx="635.0" cy="434.0" rx="115.0" ry="29.0" fill="#fff" stroke="#111" stroke-width="2"/><text x="635.0" y="427.7" text-anchor="middle" style="font-family:DejaVu Sans, Arial, sans-serif;font-size:18px;font-weight:400;fill:#111;"><tspan x="635.0" dy="0">Cấu hình làn đường</tspan></text><ellipse cx="925.0" cy="434.0" rx="105.0" ry="29.0" fill="#fff" stroke="#111" stroke-width="2"/><text x="925.0" y="427.7" text-anchor="middle" style="font-family:DejaVu Sans, Arial, sans-serif;font-size:18px;font-weight:400;fill:#111;"><tspan x="925.0" dy="0">Nhận diện phương</tspan><tspan x="925.0" dy="22.5">tiện</tspan></text><ellipse cx="1200.0" cy="434.0" rx="100.0" ry="29.0" fill="#fff" stroke="#111" stroke-width="2"/><text x="1200.0" y="427.7" text-anchor="middle" style="font-family:DejaVu Sans, Arial, sans-serif;font-size:18px;font-weight:400;fill:#111;"><tspan x="1200.0" dy="0">Đếm xe trong ROI</tspan></text><ellipse cx="635.0" cy="554.0" rx="115.0" ry="29.0" fill="#fff" stroke="#111" stroke-width="2"/><text x="635.0" y="547.7" text-anchor="middle" style="font-family:DejaVu Sans, Arial, sans-serif;font-size:18px;font-weight:400;fill:#111;"><tspan x="635.0" dy="0">Đo tốc độ phương tiện</tspan></text><ellipse cx="925.0" cy="554.0" rx="105.0" ry="29.0" fill="#fff" stroke="#111" stroke-width="2"/><text x="925.0" y="547.7" text-anchor="middle" style="font-family:DejaVu Sans, Arial, sans-serif;font-size:18px;font-weight:400;fill:#111;"><tspan x="925.0" dy="0">Chọn thời tiết</tspan></text><ellipse cx="1200.0" cy="554.0" rx="100.0" ry="29.0" fill="#fff" stroke="#111" stroke-width="2"/><text x="1200.0" y="547.7" text-anchor="middle" style="font-family:DejaVu Sans, Arial, sans-serif;font-size:18px;font-weight:400;fill:#111;"><tspan x="1200.0" dy="0">Chọn sự cố</tspan></text><ellipse cx="635.0" cy="679.0" rx="115.0" ry="29.0" fill="#fff" stroke="#111" stroke-width="2"/><text x="635.0" y="672.7" text-anchor="middle" style="font-family:DejaVu Sans, Arial, sans-serif;font-size:18px;font-weight:400;fill:#111;"><tspan x="635.0" dy="0">Tính tốc độ VSL</tspan></text><ellipse cx="925.0" cy="679.0" rx="105.0" ry="29.0" fill="#fff" stroke="#111" stroke-width="2"/><text x="925.0" y="672.7" text-anchor="middle" style="font-family:DejaVu Sans, Arial, sans-serif;font-size:18px;font-weight:400;fill:#111;"><tspan x="925.0" dy="0">Can thiệp thủ công</tspan></text><ellipse cx="1200.0" cy="679.0" rx="100.0" ry="29.0" fill="#fff" stroke="#111" stroke-width="2"/><text x="1200.0" y="672.7" text-anchor="middle" style="font-family:DejaVu Sans, Arial, sans-serif;font-size:18px;font-weight:400;fill:#111;"><tspan x="1200.0" dy="0">Gửi lệnh biển báo</tspan></text><ellipse cx="715.0" cy="819.0" rx="115.0" ry="29.0" fill="#fff" stroke="#111" stroke-width="2"/><text x="715.0" y="812.7" text-anchor="middle" style="font-family:DejaVu Sans, Arial, sans-serif;font-size:18px;font-weight:400;fill:#111;"><tspan x="715.0" dy="0">Xuất báo cáo</tspan></text><ellipse cx="1045.0" cy="819.0" rx="115.0" ry="29.0" fill="#fff" stroke="#111" stroke-width="2"/><text x="1045.0" y="812.7" text-anchor="middle" style="font-family:DejaVu Sans, Arial, sans-serif;font-size:18px;font-weight:400;fill:#111;"><tspan x="1045.0" dy="0">Xem kết quả kiểm thử</tspan></text><line x1="260" y1="195" x2="520" y2="199" stroke="#111" stroke-width="2" fill="none" marker-end="url(#arrow)"/><line x1="260" y1="195" x2="805" y2="199" stroke="#111" stroke-width="2" fill="none" marker-end="url(#arrow)"/><line x1="260" y1="505" x2="520" y2="314" stroke="#111" stroke-width="2" fill="none" marker-end="url(#arrow)"/><line x1="260" y1="505" x2="1085" y2="314" stroke="#111" stroke-width="2" fill="none" marker-end="url(#arrow)"/><line x1="260" y1="505" x2="520" y2="554" stroke="#111" stroke-width="2" fill="none" marker-end="url(#arrow)"/><line x1="260" y1="505" x2="810" y2="554" stroke="#111" stroke-width="2" fill="none" marker-end="url(#arrow)"/><line x1="260" y1="505" x2="1085" y2="554" stroke="#111" stroke-width="2" fill="none" marker-end="url(#arrow)"/><line x1="260" y1="505" x2="520" y2="679" stroke="#111" stroke-width="2" fill="none" marker-end="url(#arrow)"/><line x1="260" y1="505" x2="810" y2="679" stroke="#111" stroke-width="2" fill="none" marker-end="url(#arrow)"/><line x1="260" y1="505" x2="1085" y2="679" stroke="#111" stroke-width="2" fill="none" marker-end="url(#arrow)"/><line x1="260" y1="505" x2="600" y2="819" stroke="#111" stroke-width="2" fill="none" marker-end="url(#arrow)"/><line x1="260" y1="835" x2="930" y2="819" stroke="#111" stroke-width="2" fill="none" marker-end="url(#arrow)"/><line x1="1540" y1="245" x2="1300" y2="314" stroke="#111" stroke-width="2" fill="none" marker-end="url(#arrow)"/><line x1="1540" y1="565" x2="1030" y2="434" stroke="#111" stroke-width="2" fill="none" marker-end="url(#arrow)"/><line x1="1540" y1="895" x2="1300" y2="679" stroke="#111" stroke-width="2" fill="none" marker-end="url(#arrow)"/><text x="800" y="372" text-anchor="middle" style="font-family:DejaVu Sans, Arial, sans-serif;font-size:16px;font-weight:400;fill:#555;font-style:italic;"><tspan x="800" dy="0">&lt;&lt;include&gt;&gt;</tspan></text><line x1="740" y1="430" x2="820" y2="430" stroke="#555" stroke-width="2" fill="none" marker-end="url(#arrow)" stroke-dasharray="8 6"/><text x="985" y="612" text-anchor="middle" style="font-family:DejaVu Sans, Arial, sans-serif;font-size:16px;font-weight:400;fill:#555;font-style:italic;"><tspan x="985" dy="0">&lt;&lt;include&gt;&gt;</tspan></text><line x1="750" y1="679" x2="1100" y2="679" stroke="#555" stroke-width="2" fill="none" marker-end="url(#arrow)" stroke-dasharray="8 6"/>
</svg>