<?xml version="1.0" encoding="UTF-8"?>
<svg xmlns="http://www.w3.org/2000/svg" width="1900" height="1080" viewBox="0 0 1900 1080">
<defs>
        <marker id="arrow" markerWidth="12" markerHeight="12" refX="10" refY="6" orient="auto" markerUnits="strokeWidth">
            <path d="M2,2 L10,6 L2,10 z" fill="#111" />
        </marker>
        <marker id="arrowGray" markerWidth="12" markerHeight="12" refX="10" refY="6" orient="auto" markerUnits="strokeWidth">
            <path d="M2,2 L10,6 L2,10 z" fill="#555" />
        </marker>
        <filter id="shadow" x="-20%" y="-20%" width="140%" height="140%">
            <feDropShadow dx="0" dy="2" stdDeviation="2" flood-color="#000" flood-opacity="0.12"/>
        </filter>
        </defs>
<rect width="100%" height="100%" fill="#fff"/>
<text x="950.0" y="42" text-anchor="middle" style="font-family:DejaVu Sans, Arial, sans-serif;font-size:25px;font-weight:700;fill:#111;"><tspan x="950.0" dy="0">Hình 2.23. Biểu đồ tuần tự gửi biển báo</tspan></text><line x1="80" y1="68" x2="1820" y2="68" stroke="#444" stroke-width="1" fill="none"/><rect x="25.0" y="120" width="190" height="54" rx="6" fill="#f7f7f7" stroke="#111" stroke-width="2"/><text x="120.0" y="141.05" text-anchor="middle" style="font-family:DejaVu Sans, Arial, sans-serif;font-size:17px;font-weight:400;fill:#111;"><tspan x="120.0" dy="0">Dashboard</tspan></text><line x1="120.0" y1="190" x2="120.0" y2="1000" stroke="#777" stroke-width="1" fill="none" stroke-dasharray="8 6"/><rect x="357.0" y="120" width="190" height="54" rx="6" fill="#f7f7f7" stroke="#111" stroke-width="2"/><text x="452.0" y="141.05" text-anchor="middle" style="font-family:DejaVu Sans, Arial, sans-serif;font-size:17px;font-weight:400;fill:#111;"><tspan x="452.0" dy="0">Bộ tính VSL</tspan></text><line x1="452.0" y1="190" x2="452.0" y2="1000" stroke="#777" stroke-width="1" fill="none" stroke-dasharray="8 6"/><rect x="689.0" y="120" width="190" height="54" rx="6" fill="#f7f7f7" stroke="#111" stroke-width="2"/><text x="784.0" y="141.05" text-anchor="middle" style="font-family:DejaVu Sans, Arial, sans-serif;font-size:17px;font-weight:400;fill:#111;"><tspan x="784.0" dy="0">Bộ truyền MQTT</tspan></text><line x1="784.0" y1="190" x2="784.0" y2="1000" stroke="#777" stroke-width="1" fill="none" stroke-dasharray="8 6"/><rect x="1021.0" y="120" width="190" height="54" rx="6" fill="#f7f7f7" stroke="#111" stroke-width="2"/><text x="1116.0" y="141.05" text-anchor="middle" style="font-family:DejaVu Sans, Arial, sans-serif;font-size:17px;font-weight:400;fill:#111;"><tspan x="1116.0" dy="0">MQTT Broker</tspan></text><line x1="1116.0" y1="190" x2="1116.0" y2="1000" stroke="#777" stroke-width="1" fill="none" stroke-dasharray="8 6"/><rect x="1353.0" y="120" width="190" height="54" rx="6" fill="#f7f7f7" stroke="#111" stroke-width="2"/><text x="1448.0" y="141.05" text-anchor="middle" style="font-family:DejaVu Sans, Arial, sans-serif;font-size:17px;font-weight:400;fill:#111;"><tspan x="1448.0" dy="0">Biển báo điện tử</tspan></text><line x1="1448.0" y1="190" x2="1448.0" y2="1000" stroke="#777" stroke-width="1" fill="none" stroke-dasharray="8 6"/><rect x="1685.0" y="120" width="190" height="54" rx="6" fill="#f7f7f7" stroke="#111" stroke-width="2"/><text x="1780.0" y="141.05" text-anchor="middle" style="font-family:DejaVu Sans, Arial, sans-serif;font-size:17px;font-weight:400;fill:#111;"><tspan x="1780.0" dy="0">Log hệ thống</tspan></text><line x1="1780.0" y1="190" x2="1780.0" y2="1000" stroke="#777" stroke-width="1" fill="none" stroke-dasharray="8 6"/><line x1="120.0" y1="240" x2="452.0" y2="240" stroke="#111" stroke-width="2" fill="none" marker-end="url(#arrow)"/><text x="286.0" y="228" text-anchor="middle" style="font-family:DejaVu Sans, Arial, sans-serif;font-size:16px;font-weight:400;fill:#111;"><tspan x="286.0" dy="0">Lấy tốc độ hiện tại</tspan></text><line x1="452.0" y1="308" x2="784.0" y2="308" stroke="#111" stroke-width="2" fill="none" marker-end="url(#arrow)"/><text x="618.0" y="296" text-anchor="middle" style="font-family:DejaVu Sans, Arial, sans-serif;font-size:16px;font-weight:400;fill:#111;"><tspan x="618.0" dy="0">Tạo lệnh tốc độ</tspan></text><line x1="784.0" y1="376" x2="1116.0" y2="376" stroke="#111" stroke-width="2" fill="none" marker-end="url(#arrow)"/><text x="950.0" y="364" text-anchor="middle" style="font-family:DejaVu Sans, Arial, sans-serif;font-size:16px;font-weight:400;fill:#111;"><tspan x="950.0" dy="0">Gửi dữ liệu</tspan></text><line x1="1116.0" y1="444" x2="1448.0" y2="444" stroke="#111" stroke-width="2" fill="none" marker-end="url(#arrow)"/><text x="1282.0" y="432" text-anchor="middle" style="font-family:DejaVu Sans, Arial, sans-serif;font-size:16px;font-weight:400;fill:#111;"><tspan x="1282.0" dy="0">Chuyển tiếp tốc độ</tspan></text><line x1="1448.0" y1="512" x2="120.0" y2="512" stroke="#111" stroke-width="2" fill="none" marker-end="url(#arrow)"/><text x="784.0" y="500" text-anchor="middle" style="font-family:DejaVu Sans, Arial, sans-serif;font-size:16px;font-weight:400;fill:#111;"><tspan x="784.0" dy="0">Cập nhật trạng thái</tspan></text><line x1="784.0" y1="580" x2="1780.0" y2="580" stroke="#111" stroke-width="2" fill="none" marker-end="url(#arrow)"/><text x="1282.0" y="568" text-anchor="middle" style="font-family:DejaVu Sans, Arial, sans-serif;font-size:16px;font-weight:400;fill:#111;"><tspan x="1282.0" dy="0">Ghi trạng thái gửi lệnh</tspan></text>
</svg>