<?xml version="1.0" encoding="UTF-8"?>
<svg xmlns="http://www.w3.org/2000/svg" width="1700" height="1050" viewBox="0 0 1700 1050">
<defs>
        <marker id="arrow" markerWidth="12" markerHeight="12" refX="10" refY="6" orient="auto" markerUnits="strokeWidth">
            <path d="M2,2 L10,6 L2,10 z" fill="#111" />
        </marker>
        <marker id="arrowGray" markerWidth="12" markerHeight="12" refX="10" refY="6" orient="auto" markerUnits="strokeWidth">
            <path d="M2,2 L10,6 L2,10 z" fill="#555" />
        </marker>
        <filter id="shadow" x="-20%" y="-20%" width="140%" height="140%">
            <feDropShadow dx="0" dy="2" stdDeviation="2" flood-color="#000" flood-opacity="0.12"/>
        </filter>
        </defs>
<rect width="100%" height="100%" fill="#fff"/>
<text x="850.0" y="42" text-anchor="middle" style="font-family:DejaVu Sans, Arial, sans-serif;font-size:25px;font-weight:700;fill:#111;"><tspan x="850.0" dy="0">Hình 2.41. Biểu đồ triển khai hệ thống</tspan></text><line x1="80" y1="68" x2="1620" y2="68" stroke="#444" stroke-width="1" fill="none"/><rect x="550" y="140" width="600" height="620" rx="8" fill="#fff" stroke="#111" stroke-width="2" filter="url(#shadow)"/><text x="850.0" y="441.6" text-anchor="middle" style="font-family:DejaVu Sans, Arial, sans-serif;font-size:24px;font-weight:700;fill:#111;"><tspan x="850.0" dy="0">Máy tính vận hành</tspan></text><rect x="620" y="220" width="460" height="52" rx="8" fill="#fafafa" stroke="#111" stroke-width="2"/><text x="850.0" y="239.7" text-anchor="middle" style="font-family:DejaVu Sans, Arial, sans-serif;font-size:18px;font-weight:400;fill:#111;"><tspan x="850.0" dy="0">Dashboard PyQt5</tspan></text><rect x="620" y="300" width="460" height="52" rx="8" fill="#fafafa" stroke="#111" stroke-width="2"/><text x="850.0" y="319.7" text-anchor="middle" style="font-family:DejaVu Sans, Arial, sans-serif;font-size:18px;font-weight:400;fill:#111;"><tspan x="850.0" dy="0">OpenCV xử lý video</tspan></text><rect x="620" y="380" width="460" height="52" rx="8" fill="#fafafa" stroke="#111" stroke-width="2"/><text x="850.0" y="399.7" text-anchor="middle" style="font-family:DejaVu Sans, Arial, sans-serif;font-size:18px;font-weight:400;fill:#111;"><tspan x="850.0" dy="0">Mô hình AI nhận diện xe</tspan></text><rect x="620" y="460" width="460" height="52" rx="8" fill="#fafafa" stroke="#111" stroke-width="2"/><text x="850.0" y="479.7" text-anchor="middle" style="font-family:DejaVu Sans, Arial, sans-serif;font-size:18px;font-weight:400;fill:#111;"><tspan x="850.0" dy="0">Bộ tính VSL</tspan></text><rect x="620" y="540" width="460" height="52" rx="8" fill="#fafafa" stroke="#111" stroke-width="2"/><text x="850.0" y="559.7" text-anchor="middle" style="font-family:DejaVu Sans, Arial, sans-serif;font-size:18px;font-weight:400;fill:#111;"><tspan x="850.0" dy="0">Bộ gửi MQTT</tspan></text><rect x="620" y="620" width="460" height="52" rx="8" fill="#fafafa" stroke="#111" stroke-width="2"/><text x="850.0" y="639.7" text-anchor="middle" style="font-family:DejaVu Sans, Arial, sans-serif;font-size:18px;font-weight:400;fill:#111;"><tspan x="850.0" dy="0">Bộ xuất báo cáo</tspan></text><rect x="100" y="250" width="300" height="140" rx="8" fill="#fff" stroke="#111" stroke-width="2"/><text x="250.0" y="313.0" text-anchor="middle" style="font-family:DejaVu Sans, Arial, sans-serif;font-size:20px;font-weight:400;fill:#111;"><tspan x="250.0" dy="0">Video/Camera</tspan><tspan x="250.0" dy="25.0">Nguồn hình ảnh giao thông</tspan></text><path d="M1250,268 C1250,244 1550,244 1550,268 L1550,412 C1550,436 1250,436 1250,412 Z" fill="#fff" stroke="#111" stroke-width="2"/><ellipse cx="1400.0" cy="268" rx="150.0" ry="18" fill="#fff" stroke="#111" stroke-width="2"/><text x="1400.0" y="340.0" text-anchor="middle" style="font-family:DejaVu Sans, Arial, sans-serif;font-size:18px;font-weight:600;fill:#111;"><tspan x="1400.0" dy="0">Bộ nhớ cục bộ</tspan><tspan x="1400.0" dy="22.5">SQLite / JSON</tspan><tspan x="1400.0" dy="22.5">CSV / HTML / LOG</tspan></text><rect x="1230" y="560" width="340" height="120" rx="8" fill="#fff" stroke="#111" stroke-width="2"/><text x="1400.0" y="612.3" text-anchor="middle" style="font-family:DejaVu Sans, Arial, sans-serif;font-size:22px;font-weight:700;fill:#111;"><tspan x="1400.0" dy="0">MQTT Broker</tspan></text><rect x="1230" y="760" width="340" height="120" rx="8" fill="#fff" stroke="#111" stroke-width="2"/><text x="1400.0" y="812.3" text-anchor="middle" style="font-family:DejaVu Sans, Arial, sans-serif;font-size:22px;font-weight:700;fill:#111;"><tspan x="1400.0" dy="0">Biển báo điện tử giả lập</tspan></text><line x1="400" y1="320" x2="550" y2="320" stroke="#111" stroke-width="3" fill="none" marker-end="url(#arrow)"/><line x1="1150" y1="360" x2="1250" y2="330" stroke="#111" stroke-width="3" fill="none" marker-end="url(#arrow)"/><line x1="1150" y1="620" x2="1230" y2="620" stroke="#111" stroke-width="3" fill="none" marker-end="url(#arrow)"/><line x1="1400" y1="680" x2="1400" y2="760" stroke="#111" stroke-width="3" fill="none" marker-end="url(#arrow)"/>
</svg>