<?xml version="1.0" encoding="UTF-8"?>
<svg xmlns="http://www.w3.org/2000/svg" width="1300" height="1700" viewBox="0 0 1300 1700">
<defs>
        <marker id="arrow" markerWidth="12" markerHeight="12" refX="10" refY="6" orient="auto" markerUnits="strokeWidth">
            <path d="M2,2 L10,6 L2,10 z" fill="#111" />
        </marker>
        <marker id="arrowGray" markerWidth="12" markerHeight="12" refX="10" refY="6" orient="auto" markerUnits="strokeWidth">
            <path d="M2,2 L10,6 L2,10 z" fill="#555" />
        </marker>
        <filter id="shadow" x="-20%" y="-20%" width="140%" height="140%">
            <feDropShadow dx="0" dy="2" stdDeviation="2" flood-color="#000" flood-opacity="0.12"/>
        </filter>
        </defs>
<rect width="100%" height="100%" fill="#fff"/>
<text x="650.0" y="42" text-anchor="middle" style="font-family:DejaVu Sans, Arial, sans-serif;font-size:25px;font-weight:700;fill:#111;"><tspan x="650.0" dy="0">Hình 2.15. Luồng xử lý dữ liệu từ video đến VSL</tspan></text><line x1="80" y1="68" x2="1220" y2="68" stroke="#444" stroke-width="1" fill="none"/><circle cx="650.0" cy="120" r="18" fill="#111" stroke="#111"/><rect x="440.0" y="190" width="420" height="62" rx="16" fill="#fff" stroke="#111" stroke-width="2"/><text x="650.0" y="214.7" text-anchor="middle" style="font-family:DejaVu Sans, Arial, sans-serif;font-size:18px;font-weight:400;fill:#111;"><tspan x="650.0" dy="0">Người vận hành chọn video/camera</tspan></text><line x1="650.0" y1="138" x2="650.0" y2="190" stroke="#111" stroke-width="2" fill="none" marker-end="url(#arrow)"/><rect x="440.0" y="295" width="420" height="62" rx="16" fill="#fff" stroke="#111" stroke-width="2"/><text x="650.0" y="319.7" text-anchor="middle" style="font-family:DejaVu Sans, Arial, sans-serif;font-size:18px;font-weight:400;fill:#111;"><tspan x="650.0" dy="0">Hệ thống đọc khung hình</tspan></text><line x1="650.0" y1="252" x2="650.0" y2="295" stroke="#111" stroke-width="2" fill="none" marker-end="url(#arrow)"/><rect x="440.0" y="400" width="420" height="62" rx="16" fill="#fff" stroke="#111" stroke-width="2"/><text x="650.0" y="424.7" text-anchor="middle" style="font-family:DejaVu Sans, Arial, sans-serif;font-size:18px;font-weight:400;fill:#111;"><tspan x="650.0" dy="0">AI nhận diện phương tiện</tspan></text><line x1="650.0" y1="357" x2="650.0" y2="400" stroke="#111" stroke-width="2" fill="none" marker-end="url(#arrow)"/><rect x="440.0" y="505" width="420" height="62" rx="16" fill="#fff" stroke="#111" stroke-width="2"/><text x="650.0" y="529.7" text-anchor="middle" style="font-family:DejaVu Sans, Arial, sans-serif;font-size:18px;font-weight:400;fill:#111;"><tspan x="650.0" dy="0">Lọc phương tiện trong ROI</tspan></text><line x1="650.0" y1="462" x2="650.0" y2="505" stroke="#111" stroke-width="2" fill="none" marker-end="url(#arrow)"/><rect x="440.0" y="610" width="420" height="62" rx="16" fill="#fff" stroke="#111" stroke-width="2"/><text x="650.0" y="634.7" text-anchor="middle" style="font-family:DejaVu Sans, Arial, sans-serif;font-size:18px;font-weight:400;fill:#111;"><tspan x="650.0" dy="0">Đếm và phân loại xe</tspan></text><line x1="650.0" y1="567" x2="650.0" y2="610" stroke="#111" stroke-width="2" fill="none" marker-end="url(#arrow)"/><rect x="440.0" y="715" width="420" height="62" rx="16" fill="#fff" stroke="#111" stroke-width="2"/><text x="650.0" y="739.7" text-anchor="middle" style="font-family:DejaVu Sans, Arial, sans-serif;font-size:18px;font-weight:400;fill:#111;"><tspan x="650.0" dy="0">Theo dõi xe qua các frame</tspan></text><line x1="650.0" y1="672" x2="650.0" y2="715" stroke="#111" stroke-width="2" fill="none" marker-end="url(#arrow)"/><rect x="440.0" y="820" width="420" height="62" rx="16" fill="#fff" stroke="#111" stroke-width="2"/><text x="650.0" y="844.7" text-anchor="middle" style="font-family:DejaVu Sans, Arial, sans-serif;font-size:18px;font-weight:400;fill:#111;"><tspan x="650.0" dy="0">Đo tốc độ qua hai vạch</tspan></text><line x1="650.0" y1="777" x2="650.0" y2="820" stroke="#111" stroke-width="2" fill="none" marker-end="url(#arrow)"/><rect x="440.0" y="925" width="420" height="62" rx="16" fill="#fff" stroke="#111" stroke-width="2"/><text x="650.0" y="949.7" text-anchor="middle" style="font-family:DejaVu Sans, Arial, sans-serif;font-size:18px;font-weight:400;fill:#111;"><tspan x="650.0" dy="0">Tính mật độ giao thông</tspan></text><line x1="650.0" y1="882" x2="650.0" y2="925" stroke="#111" stroke-width="2" fill="none" marker-end="url(#arrow)"/><rect x="440.0" y="1030" width="420" height="62" rx="16" fill="#fff" stroke="#111" stroke-width="2"/><text x="650.0" y="1054.7" text-anchor="middle" style="font-family:DejaVu Sans, Arial, sans-serif;font-size:18px;font-weight:400;fill:#111;"><tspan x="650.0" dy="0">Xét thời tiết và sự cố</tspan></text><line x1="650.0" y1="987" x2="650.0" y2="1030" stroke="#111" stroke-width="2" fill="none" marker-end="url(#arrow)"/><rect x="440.0" y="1135" width="420" height="62" rx="16" fill="#fff" stroke="#111" stroke-width="2"/><text x="650.0" y="1159.7" text-anchor="middle" style="font-family:DejaVu Sans, Arial, sans-serif;font-size:18px;font-weight:400;fill:#111;"><tspan x="650.0" dy="0">Tính tốc độ VSL</tspan></text><line x1="650.0" y1="1092" x2="650.0" y2="1135" stroke="#111" stroke-width="2" fill="none" marker-end="url(#arrow)"/><rect x="440.0" y="1240" width="420" height="62" rx="16" fill="#fff" stroke="#111" stroke-width="2"/><text x="650.0" y="1264.7" text-anchor="middle" style="font-family:DejaVu Sans, Arial, sans-serif;font-size:18px;font-weight:400;fill:#111;"><tspan x="650.0" dy="0">Hiển thị dashboard</tspan></text><line x1="650.0" y1="1197" x2="650.0" y2="1240" stroke="#111" stroke-width="2" fill="none" marker-end="url(#arrow)"/><rect x="440.0" y="1345" width="420" height="62" rx="16" fill="#fff" stroke="#111" stroke-width="2"/><text x="650.0" y="1369.7" text-anchor="middle" style="font-family:DejaVu Sans, Arial, sans-serif;font-size:18px;font-weight:400;fill:#111;"><tspan x="650.0" dy="0">Gửi biển báo / xuất báo cáo</tspan></text><line x1="650.0" y1="1302" x2="650.0" y2="1345" stroke="#111" stroke-width="2" fill="none" marker-end="url(#arrow)"/><polygon points="650.0,1450 805.0,1500.0 650.0,1550 495.0,1500.0" fill="#fff" stroke="#111" stroke-width="2"/><text x="650.0" y="1494.05" text-anchor="middle" style="font-family:DejaVu Sans, Arial, sans-serif;font-size:17px;font-weight:400;fill:#111;"><tspan x="650.0" dy="0">Video còn frame?</tspan></text><line x1="650.0" y1="1407" x2="650.0" y2="1450" stroke="#111" stroke-width="2" fill="none" marker-end="url(#arrow)"/><rect x="440.0" y="1595" width="420" height="62" rx="16" fill="#fff" stroke="#111" stroke-width="2"/><text x="650.0" y="1619.7" text-anchor="middle" style="font-family:DejaVu Sans, Arial, sans-serif;font-size:18px;font-weight:400;fill:#111;"><tspan x="650.0" dy="0">Kết thúc phiên phân tích</tspan></text><line x1="650.0" y1="1550" x2="650.0" y2="1595" stroke="#111" stroke-width="2" fill="none" marker-end="url(#arrow)"/><circle cx="650.0" cy="1700" r="20" fill="#fff" stroke="#111" stroke-width="2"/><circle cx="650.0" cy="1700" r="12" fill="#111" stroke="#111"/><line x1="650.0" y1="1657" x2="650.0" y2="1680" stroke="#111" stroke-width="2" fill="none" marker-end="url(#arrow)"/>
</svg>