<?xml version="1.0" encoding="UTF-8"?>
<svg xmlns="http://www.w3.org/2000/svg" width="1600" height="1100" viewBox="0 0 1600 1100">
<defs>
        <marker id="arrow" markerWidth="12" markerHeight="12" refX="10" refY="6" orient="auto" markerUnits="strokeWidth">
            <path d="M2,2 L10,6 L2,10 z" fill="#111" />
        </marker>
        <marker id="arrowGray" markerWidth="12" markerHeight="12" refX="10" refY="6" orient="auto" markerUnits="strokeWidth">
            <path d="M2,2 L10,6 L2,10 z" fill="#555" />
        </marker>
        <filter id="shadow" x="-20%" y="-20%" width="140%" height="140%">
            <feDropShadow dx="0" dy="2" stdDeviation="2" flood-color="#000" flood-opacity="0.12"/>
        </filter>
        </defs>
<rect width="100%" height="100%" fill="#fff"/>
<text x="800.0" y="42" text-anchor="middle" style="font-family:DejaVu Sans, Arial, sans-serif;font-size:25px;font-weight:700;fill:#111;"><tspan x="800.0" dy="0">Hình 2.38. Ma trận quyết định VSL</tspan></text><line x1="80" y1="68" x2="1520" y2="68" stroke="#444" stroke-width="1" fill="none"/><rect x="130" y="120" width="320" height="75" rx="0" fill="#f2f2f2" stroke="#111" stroke-width="2"/><text x="290.0" y="149.8" text-anchor="middle" style="font-family:DejaVu Sans, Arial, sans-serif;font-size:22px;font-weight:700;fill:#111;"><tspan x="290.0" dy="0">Điều kiện</tspan></text><rect x="450" y="120" width="380" height="75" rx="0" fill="#f2f2f2" stroke="#111" stroke-width="2"/><text x="640.0" y="149.8" text-anchor="middle" style="font-family:DejaVu Sans, Arial, sans-serif;font-size:22px;font-weight:700;fill:#111;"><tspan x="640.0" dy="0">Mức độ</tspan></text><rect x="830" y="120" width="470" height="75" rx="0" fill="#f2f2f2" stroke="#111" stroke-width="2"/><text x="1065.0" y="149.8" text-anchor="middle" style="font-family:DejaVu Sans, Arial, sans-serif;font-size:22px;font-weight:700;fill:#111;"><tspan x="1065.0" dy="0">Hướng xử lý</tspan></text><rect x="130" y="195" width="320" height="75" rx="0" fill="#fff" stroke="#111" stroke-width="2"/><text x="290.0" y="225.85" text-anchor="middle" style="font-family:DejaVu Sans, Arial, sans-serif;font-size:19px;font-weight:400;fill:#111;"><tspan x="290.0" dy="0">Mật độ xe</tspan></text><rect x="450" y="195" width="380" height="75" rx="0" fill="#fff" stroke="#111" stroke-width="2"/><text x="640.0" y="225.85" text-anchor="middle" style="font-family:DejaVu Sans, Arial, sans-serif;font-size:19px;font-weight:400;fill:#111;"><tspan x="640.0" dy="0">Thấp</tspan></text><rect x="830" y="195" width="470" height="75" rx="0" fill="#fff" stroke="#111" stroke-width="2"/><text x="1065.0" y="225.85" text-anchor="middle" style="font-family:DejaVu Sans, Arial, sans-serif;font-size:19px;font-weight:400;fill:#111;"><tspan x="1065.0" dy="0">Giữ tốc độ cao</tspan></text><rect x="130" y="270" width="320" height="75" rx="0" fill="#fff" stroke="#111" stroke-width="2"/><text x="290.0" y="300.85" text-anchor="middle" style="font-family:DejaVu Sans, Arial, sans-serif;font-size:19px;font-weight:400;fill:#111;"><tspan x="290.0" dy="0">Mật độ xe</tspan></text><rect x="450" y="270" width="380" height="75" rx="0" fill="#fff" stroke="#111" stroke-width="2"/><text x="640.0" y="300.85" text-anchor="middle" style="font-family:DejaVu Sans, Arial, sans-serif;font-size:19px;font-weight:400;fill:#111;"><tspan x="640.0" dy="0">Trung bình</tspan></text><rect x="830" y="270" width="470" height="75" rx="0" fill="#fff" stroke="#111" stroke-width="2"/><text x="1065.0" y="300.85" text-anchor="middle" style="font-family:DejaVu Sans, Arial, sans-serif;font-size:19px;font-weight:400;fill:#111;"><tspan x="1065.0" dy="0">Giảm tốc vừa phải</tspan></text><rect x="130" y="345" width="320" height="75" rx="0" fill="#fff" stroke="#111" stroke-width="2"/><text x="290.0" y="375.85" text-anchor="middle" style="font-family:DejaVu Sans, Arial, sans-serif;font-size:19px;font-weight:400;fill:#111;"><tspan x="290.0" dy="0">Mật độ xe</tspan></text><rect x="450" y="345" width="380" height="75" rx="0" fill="#fff" stroke="#111" stroke-width="2"/><text x="640.0" y="375.85" text-anchor="middle" style="font-family:DejaVu Sans, Arial, sans-serif;font-size:19px;font-weight:400;fill:#111;"><tspan x="640.0" dy="0">Cao</tspan></text><rect x="830" y="345" width="470" height="75" rx="0" fill="#fff" stroke="#111" stroke-width="2"/><text x="1065.0" y="375.85" text-anchor="middle" style="font-family:DejaVu Sans, Arial, sans-serif;font-size:19px;font-weight:400;fill:#111;"><tspan x="1065.0" dy="0">Giảm tốc mạnh</tspan></text><rect x="130" y="420" width="320" height="75" rx="0" fill="#fff" stroke="#111" stroke-width="2"/><text x="290.0" y="450.85" text-anchor="middle" style="font-family:DejaVu Sans, Arial, sans-serif;font-size:19px;font-weight:400;fill:#111;"><tspan x="290.0" dy="0">Xe nặng</tspan></text><rect x="450" y="420" width="380" height="75" rx="0" fill="#fff" stroke="#111" stroke-width="2"/><text x="640.0" y="450.85" text-anchor="middle" style="font-family:DejaVu Sans, Arial, sans-serif;font-size:19px;font-weight:400;fill:#111;"><tspan x="640.0" dy="0">Tỷ lệ cao</tspan></text><rect x="830" y="420" width="470" height="75" rx="0" fill="#fff" stroke="#111" stroke-width="2"/><text x="1065.0" y="450.85" text-anchor="middle" style="font-family:DejaVu Sans, Arial, sans-serif;font-size:19px;font-weight:400;fill:#111;"><tspan x="1065.0" dy="0">Giảm thêm tốc độ</tspan></text><rect x="130" y="495" width="320" height="75" rx="0" fill="#fff" stroke="#111" stroke-width="2"/><text x="290.0" y="525.85" text-anchor="middle" style="font-family:DejaVu Sans, Arial, sans-serif;font-size:19px;font-weight:400;fill:#111;"><tspan x="290.0" dy="0">Thời tiết</tspan></text><rect x="450" y="495" width="380" height="75" rx="0" fill="#fff" stroke="#111" stroke-width="2"/><text x="640.0" y="525.85" text-anchor="middle" style="font-family:DejaVu Sans, Arial, sans-serif;font-size:19px;font-weight:400;fill:#111;"><tspan x="640.0" dy="0">Trời quang</tspan></text><rect x="830" y="495" width="470" height="75" rx="0" fill="#fff" stroke="#111" stroke-width="2"/><text x="1065.0" y="525.85" text-anchor="middle" style="font-family:DejaVu Sans, Arial, sans-serif;font-size:19px;font-weight:400;fill:#111;"><tspan x="1065.0" dy="0">Không giảm do thời tiết</tspan></text><rect x="130" y="570" width="320" height="75" rx="0" fill="#fff" stroke="#111" stroke-width="2"/><text x="290.0" y="600.85" text-anchor="middle" style="font-family:DejaVu Sans, Arial, sans-serif;font-size:19px;font-weight:400;fill:#111;"><tspan x="290.0" dy="0">Thời tiết</tspan></text><rect x="450" y="570" width="380" height="75" rx="0" fill="#fff" stroke="#111" stroke-width="2"/><text x="640.0" y="600.85" text-anchor="middle" style="font-family:DejaVu Sans, Arial, sans-serif;font-size:19px;font-weight:400;fill:#111;"><tspan x="640.0" dy="0">Mưa nhỏ</tspan></text><rect x="830" y="570" width="470" height="75" rx="0" fill="#fff" stroke="#111" stroke-width="2"/><text x="1065.0" y="600.85" text-anchor="middle" style="font-family:DejaVu Sans, Arial, sans-serif;font-size:19px;font-weight:400;fill:#111;"><tspan x="1065.0" dy="0">Giảm nhẹ</tspan></text><rect x="130" y="645" width="320" height="75" rx="0" fill="#fff" stroke="#111" stroke-width="2"/><text x="290.0" y="675.85" text-anchor="middle" style="font-family:DejaVu Sans, Arial, sans-serif;font-size:19px;font-weight:400;fill:#111;"><tspan x="290.0" dy="0">Thời tiết</tspan></text><rect x="450" y="645" width="380" height="75" rx="0" fill="#fff" stroke="#111" stroke-width="2"/><text x="640.0" y="675.85" text-anchor="middle" style="font-family:DejaVu Sans, Arial, sans-serif;font-size:19px;font-weight:400;fill:#111;"><tspan x="640.0" dy="0">Mưa vừa/to</tspan></text><rect x="830" y="645" width="470" height="75" rx="0" fill="#fff" stroke="#111" stroke-width="2"/><text x="1065.0" y="675.85" text-anchor="middle" style="font-family:DejaVu Sans, Arial, sans-serif;font-size:19px;font-weight:400;fill:#111;"><tspan x="1065.0" dy="0">Giảm rõ rệt</tspan></text><rect x="130" y="720" width="320" height="75" rx="0" fill="#fff" stroke="#111" stroke-width="2"/><text x="290.0" y="750.85" text-anchor="middle" style="font-family:DejaVu Sans, Arial, sans-serif;font-size:19px;font-weight:400;fill:#111;"><tspan x="290.0" dy="0">Thời tiết</tspan></text><rect x="450" y="720" width="380" height="75" rx="0" fill="#fff" stroke="#111" stroke-width="2"/><text x="640.0" y="750.85" text-anchor="middle" style="font-family:DejaVu Sans, Arial, sans-serif;font-size:19px;font-weight:400;fill:#111;"><tspan x="640.0" dy="0">Sương mù</tspan></text><rect x="830" y="720" width="470" height="75" rx="0" fill="#fff" stroke="#111" stroke-width="2"/><text x="1065.0" y="750.85" text-anchor="middle" style="font-family:DejaVu Sans, Arial, sans-serif;font-size:19px;font-weight:400;fill:#111;"><tspan x="1065.0" dy="0">Giảm theo mức tầm nhìn</tspan></text><rect x="130" y="795" width="320" height="75" rx="0" fill="#fff" stroke="#111" stroke-width="2"/><text x="290.0" y="825.85" text-anchor="middle" style="font-family:DejaVu Sans, Arial, sans-serif;font-size:19px;font-weight:400;fill:#111;"><tspan x="290.0" dy="0">Sự cố</tspan></text><rect x="450" y="795" width="380" height="75" rx="0" fill="#fff" stroke="#111" stroke-width="2"/><text x="640.0" y="825.85" text-anchor="middle" style="font-family:DejaVu Sans, Arial, sans-serif;font-size:19px;font-weight:400;fill:#111;"><tspan x="640.0" dy="0">Nhẹ</tspan></text><rect x="830" y="795" width="470" height="75" rx="0" fill="#fff" stroke="#111" stroke-width="2"/><text x="1065.0" y="825.85" text-anchor="middle" style="font-family:DejaVu Sans, Arial, sans-serif;font-size:19px;font-weight:400;fill:#111;"><tspan x="1065.0" dy="0">Giảm tốc cảnh báo</tspan></text><rect x="130" y="870" width="320" height="75" rx="0" fill="#fff" stroke="#111" stroke-width="2"/><text x="290.0" y="900.85" text-anchor="middle" style="font-family:DejaVu Sans, Arial, sans-serif;font-size:19px;font-weight:400;fill:#111;"><tspan x="290.0" dy="0">Sự cố</tspan></text><rect x="450" y="870" width="380" height="75" rx="0" fill="#fff" stroke="#111" stroke-width="2"/><text x="640.0" y="900.85" text-anchor="middle" style="font-family:DejaVu Sans, Arial, sans-serif;font-size:19px;font-weight:400;fill:#111;"><tspan x="640.0" dy="0">Nghiêm trọng</tspan></text><rect x="830" y="870" width="470" height="75" rx="0" fill="#fff" stroke="#111" stroke-width="2"/><text x="1065.0" y="900.85" text-anchor="middle" style="font-family:DejaVu Sans, Arial, sans-serif;font-size:19px;font-weight:400;fill:#111;"><tspan x="1065.0" dy="0">Giảm tốc mạnh</tspan></text><rect x="130" y="945" width="320" height="75" rx="0" fill="#fff" stroke="#111" stroke-width="2"/><text x="290.0" y="975.85" text-anchor="middle" style="font-family:DejaVu Sans, Arial, sans-serif;font-size:19px;font-weight:400;fill:#111;"><tspan x="290.0" dy="0">Điều khiển</tspan></text><rect x="450" y="945" width="380" height="75" rx="0" fill="#fff" stroke="#111" stroke-width="2"/><text x="640.0" y="975.85" text-anchor="middle" style="font-family:DejaVu Sans, Arial, sans-serif;font-size:19px;font-weight:400;fill:#111;"><tspan x="640.0" dy="0">Thủ công</tspan></text><rect x="830" y="945" width="470" height="75" rx="0" fill="#fff" stroke="#111" stroke-width="2"/><text x="1065.0" y="975.85" text-anchor="middle" style="font-family:DejaVu Sans, Arial, sans-serif;font-size:19px;font-weight:400;fill:#111;"><tspan x="1065.0" dy="0">Ưu tiên người vận hành</tspan></text>
</svg>