<?xml version="1.0" encoding="UTF-8"?>
<svg xmlns="http://www.w3.org/2000/svg" width="1900" height="1050" viewBox="0 0 1900 1050">
<defs>
        <marker id="arrow" markerWidth="12" markerHeight="12" refX="10" refY="6" orient="auto" markerUnits="strokeWidth">
            <path d="M2,2 L10,6 L2,10 z" fill="#111" />
        </marker>
        <marker id="arrowGray" markerWidth="12" markerHeight="12" refX="10" refY="6" orient="auto" markerUnits="strokeWidth">
            <path d="M2,2 L10,6 L2,10 z" fill="#555" />
        </marker>
        <filter id="shadow" x="-20%" y="-20%" width="140%" height="140%">
            <feDropShadow dx="0" dy="2" stdDeviation="2" flood-color="#000" flood-opacity="0.12"/>
        </filter>
        </defs>
<rect width="100%" height="100%" fill="#fff"/>
<text x="950.0" y="42" text-anchor="middle" style="font-family:DejaVu Sans, Arial, sans-serif;font-size:25px;font-weight:700;fill:#111;"><tspan x="950.0" dy="0">Hình 2.14. Kiến trúc tổng thể hệ thống VSL</tspan></text><line x1="80" y1="68" x2="1820" y2="68" stroke="#444" stroke-width="1" fill="none"/><rect x="70" y="150" width="270" height="70" rx="8" fill="#f5f5f5" stroke="#111" stroke-width="2"/><text x="205.0" y="177.65" text-anchor="middle" style="font-family:DejaVu Sans, Arial, sans-serif;font-size:21px;font-weight:700;fill:#111;"><tspan x="205.0" dy="0">Dữ liệu đầu vào</tspan></text><rect x="70" y="260" width="270" height="52" rx="5" fill="#fff" stroke="#111" stroke-width="2"/><text x="205.0" y="279.7" text-anchor="middle" style="font-family:DejaVu Sans, Arial, sans-serif;font-size:18px;font-weight:400;fill:#111;"><tspan x="205.0" dy="0">Video giao thông</tspan></text><rect x="70" y="335" width="270" height="52" rx="5" fill="#fff" stroke="#111" stroke-width="2"/><text x="205.0" y="354.7" text-anchor="middle" style="font-family:DejaVu Sans, Arial, sans-serif;font-size:18px;font-weight:400;fill:#111;"><tspan x="205.0" dy="0">Camera CCTV mô phỏng</tspan></text><rect x="70" y="410" width="270" height="52" rx="5" fill="#fff" stroke="#111" stroke-width="2"/><text x="205.0" y="429.7" text-anchor="middle" style="font-family:DejaVu Sans, Arial, sans-serif;font-size:18px;font-weight:400;fill:#111;"><tspan x="205.0" dy="0">Thời tiết</tspan></text><rect x="70" y="485" width="270" height="52" rx="5" fill="#fff" stroke="#111" stroke-width="2"/><text x="205.0" y="504.7" text-anchor="middle" style="font-family:DejaVu Sans, Arial, sans-serif;font-size:18px;font-weight:400;fill:#111;"><tspan x="205.0" dy="0">Sự cố</tspan></text><line x1="340" y1="480" x2="375" y2="480" stroke="#111" stroke-width="3" fill="none" marker-end="url(#arrow)"/><rect x="375" y="150" width="270" height="70" rx="8" fill="#f5f5f5" stroke="#111" stroke-width="2"/><text x="510.0" y="177.65" text-anchor="middle" style="font-family:DejaVu Sans, Arial, sans-serif;font-size:21px;font-weight:700;fill:#111;"><tspan x="510.0" dy="0">Xử lý hình ảnh</tspan></text><rect x="375" y="260" width="270" height="52" rx="5" fill="#fff" stroke="#111" stroke-width="2"/><text x="510.0" y="279.7" text-anchor="middle" style="font-family:DejaVu Sans, Arial, sans-serif;font-size:18px;font-weight:400;fill:#111;"><tspan x="510.0" dy="0">Đọc video</tspan></text><rect x="375" y="335" width="270" height="52" rx="5" fill="#fff" stroke="#111" stroke-width="2"/><text x="510.0" y="354.7" text-anchor="middle" style="font-family:DejaVu Sans, Arial, sans-serif;font-size:18px;font-weight:400;fill:#111;"><tspan x="510.0" dy="0">Tách frame</tspan></text><rect x="375" y="410" width="270" height="52" rx="5" fill="#fff" stroke="#111" stroke-width="2"/><text x="510.0" y="429.7" text-anchor="middle" style="font-family:DejaVu Sans, Arial, sans-serif;font-size:18px;font-weight:400;fill:#111;"><tspan x="510.0" dy="0">Vẽ ROI</tspan></text><rect x="375" y="485" width="270" height="52" rx="5" fill="#fff" stroke="#111" stroke-width="2"/><text x="510.0" y="504.7" text-anchor="middle" style="font-family:DejaVu Sans, Arial, sans-serif;font-size:18px;font-weight:400;fill:#111;"><tspan x="510.0" dy="0">Chia làn</tspan></text><line x1="645" y1="480" x2="680" y2="480" stroke="#111" stroke-width="3" fill="none" marker-end="url(#arrow)"/><rect x="680" y="150" width="270" height="70" rx="8" fill="#f5f5f5" stroke="#111" stroke-width="2"/><text x="815.0" y="177.65" text-anchor="middle" style="font-family:DejaVu Sans, Arial, sans-serif;font-size:21px;font-weight:700;fill:#111;"><tspan x="815.0" dy="0">AI nhận diện</tspan></text><rect x="680" y="260" width="270" height="52" rx="5" fill="#fff" stroke="#111" stroke-width="2"/><text x="815.0" y="279.7" text-anchor="middle" style="font-family:DejaVu Sans, Arial, sans-serif;font-size:18px;font-weight:400;fill:#111;"><tspan x="815.0" dy="0">Nhận diện xe</tspan></text><rect x="680" y="335" width="270" height="52" rx="5" fill="#fff" stroke="#111" stroke-width="2"/><text x="815.0" y="354.7" text-anchor="middle" style="font-family:DejaVu Sans, Arial, sans-serif;font-size:18px;font-weight:400;fill:#111;"><tspan x="815.0" dy="0">Phân loại xe</tspan></text><rect x="680" y="410" width="270" height="52" rx="5" fill="#fff" stroke="#111" stroke-width="2"/><text x="815.0" y="429.7" text-anchor="middle" style="font-family:DejaVu Sans, Arial, sans-serif;font-size:18px;font-weight:400;fill:#111;"><tspan x="815.0" dy="0">Lọc theo độ tin cậy</tspan></text><line x1="950" y1="480" x2="985" y2="480" stroke="#111" stroke-width="3" fill="none" marker-end="url(#arrow)"/><rect x="985" y="150" width="270" height="70" rx="8" fill="#f5f5f5" stroke="#111" stroke-width="2"/><text x="1120.0" y="177.65" text-anchor="middle" style="font-family:DejaVu Sans, Arial, sans-serif;font-size:21px;font-weight:700;fill:#111;"><tspan x="1120.0" dy="0">Phân tích giao thông</tspan></text><rect x="985" y="260" width="270" height="52" rx="5" fill="#fff" stroke="#111" stroke-width="2"/><text x="1120.0" y="279.7" text-anchor="middle" style="font-family:DejaVu Sans, Arial, sans-serif;font-size:18px;font-weight:400;fill:#111;"><tspan x="1120.0" dy="0">Đếm xe</tspan></text><rect x="985" y="335" width="270" height="52" rx="5" fill="#fff" stroke="#111" stroke-width="2"/><text x="1120.0" y="354.7" text-anchor="middle" style="font-family:DejaVu Sans, Arial, sans-serif;font-size:18px;font-weight:400;fill:#111;"><tspan x="1120.0" dy="0">Tính mật độ</tspan></text><rect x="985" y="410" width="270" height="52" rx="5" fill="#fff" stroke="#111" stroke-width="2"/><text x="1120.0" y="429.7" text-anchor="middle" style="font-family:DejaVu Sans, Arial, sans-serif;font-size:18px;font-weight:400;fill:#111;"><tspan x="1120.0" dy="0">Đo tốc độ</tspan></text><rect x="985" y="485" width="270" height="52" rx="5" fill="#fff" stroke="#111" stroke-width="2"/><text x="1120.0" y="504.7" text-anchor="middle" style="font-family:DejaVu Sans, Arial, sans-serif;font-size:18px;font-weight:400;fill:#111;"><tspan x="1120.0" dy="0">Tỷ lệ xe nặng</tspan></text><line x1="1255" y1="480" x2="1290" y2="480" stroke="#111" stroke-width="3" fill="none" marker-end="url(#arrow)"/><rect x="1290" y="150" width="270" height="70" rx="8" fill="#f5f5f5" stroke="#111" stroke-width="2"/><text x="1425.0" y="177.65" text-anchor="middle" style="font-family:DejaVu Sans, Arial, sans-serif;font-size:21px;font-weight:700;fill:#111;"><tspan x="1425.0" dy="0">Tính VSL</tspan></text><rect x="1290" y="260" width="270" height="52" rx="5" fill="#fff" stroke="#111" stroke-width="2"/><text x="1425.0" y="279.7" text-anchor="middle" style="font-family:DejaVu Sans, Arial, sans-serif;font-size:18px;font-weight:400;fill:#111;"><tspan x="1425.0" dy="0">Tốc độ cơ bản</tspan></text><rect x="1290" y="335" width="270" height="52" rx="5" fill="#fff" stroke="#111" stroke-width="2"/><text x="1425.0" y="354.7" text-anchor="middle" style="font-family:DejaVu Sans, Arial, sans-serif;font-size:18px;font-weight:400;fill:#111;"><tspan x="1425.0" dy="0">Hiệu chỉnh thời tiết</tspan></text><rect x="1290" y="410" width="270" height="52" rx="5" fill="#fff" stroke="#111" stroke-width="2"/><text x="1425.0" y="429.7" text-anchor="middle" style="font-family:DejaVu Sans, Arial, sans-serif;font-size:18px;font-weight:400;fill:#111;"><tspan x="1425.0" dy="0">Hiệu chỉnh sự cố</tspan></text><rect x="1290" y="485" width="270" height="52" rx="5" fill="#fff" stroke="#111" stroke-width="2"/><text x="1425.0" y="504.7" text-anchor="middle" style="font-family:DejaVu Sans, Arial, sans-serif;font-size:18px;font-weight:400;fill:#111;"><tspan x="1425.0" dy="0">Thủ công</tspan></text><line x1="1560" y1="480" x2="1595" y2="480" stroke="#111" stroke-width="3" fill="none" marker-end="url(#arrow)"/><rect x="1595" y="150" width="270" height="70" rx="8" fill="#f5f5f5" stroke="#111" stroke-width="2"/><text x="1730.0" y="177.65" text-anchor="middle" style="font-family:DejaVu Sans, Arial, sans-serif;font-size:21px;font-weight:700;fill:#111;"><tspan x="1730.0" dy="0">Đầu ra</tspan></text><rect x="1595" y="260" width="270" height="52" rx="5" fill="#fff" stroke="#111" stroke-width="2"/><text x="1730.0" y="279.7" text-anchor="middle" style="font-family:DejaVu Sans, Arial, sans-serif;font-size:18px;font-weight:400;fill:#111;"><tspan x="1730.0" dy="0">Dashboard</tspan></text><rect x="1595" y="335" width="270" height="52" rx="5" fill="#fff" stroke="#111" stroke-width="2"/><text x="1730.0" y="354.7" text-anchor="middle" style="font-family:DejaVu Sans, Arial, sans-serif;font-size:18px;font-weight:400;fill:#111;"><tspan x="1730.0" dy="0">Biển báo giả lập</tspan></text><rect x="1595" y="410" width="270" height="52" rx="5" fill="#fff" stroke="#111" stroke-width="2"/><text x="1730.0" y="429.7" text-anchor="middle" style="font-family:DejaVu Sans, Arial, sans-serif;font-size:18px;font-weight:400;fill:#111;"><tspan x="1730.0" dy="0">Báo cáo</tspan></text><rect x="1595" y="485" width="270" height="52" rx="5" fill="#fff" stroke="#111" stroke-width="2"/><text x="1730.0" y="504.7" text-anchor="middle" style="font-family:DejaVu Sans, Arial, sans-serif;font-size:18px;font-weight:400;fill:#111;"><tspan x="1730.0" dy="0">Log</tspan></text>
</svg>