<?xml version="1.0" encoding="UTF-8"?>
<svg xmlns="http://www.w3.org/2000/svg" width="1700" height="1000" viewBox="0 0 1700 1000">
<defs>
        <marker id="arrow" markerWidth="12" markerHeight="12" refX="10" refY="6" orient="auto" markerUnits="strokeWidth">
            <path d="M2,2 L10,6 L2,10 z" fill="#111" />
        </marker>
        <marker id="arrowGray" markerWidth="12" markerHeight="12" refX="10" refY="6" orient="auto" markerUnits="strokeWidth">
            <path d="M2,2 L10,6 L2,10 z" fill="#555" />
        </marker>
        <filter id="shadow" x="-20%" y="-20%" width="140%" height="140%">
            <feDropShadow dx="0" dy="2" stdDeviation="2" flood-color="#000" flood-opacity="0.12"/>
        </filter>
        </defs>
<rect width="100%" height="100%" fill="#fff"/>
<text x="850.0" y="42" text-anchor="middle" style="font-family:DejaVu Sans, Arial, sans-serif;font-size:25px;font-weight:700;fill:#111;"><tspan x="850.0" dy="0">Hình 2.2. Biểu đồ phân rã chức năng tổng quát</tspan></text><line x1="80" y1="68" x2="1620" y2="68" stroke="#444" stroke-width="1" fill="none"/><rect x="620.0" y="100" width="460" height="70" rx="6" fill="#f7f7f7" stroke="#111" stroke-width="2"/><text x="850.0" y="127.3" text-anchor="middle" style="font-family:DejaVu Sans, Arial, sans-serif;font-size:22px;font-weight:700;fill:#111;"><tspan x="850.0" dy="0">Hệ thống biển báo tốc độ linh hoạt</tspan><tspan x="850.0" dy="27.5">VSL</tspan></text><rect x="80.0" y="250" width="358.75" height="74" rx="6" fill="#fff" stroke="#111" stroke-width="2"/><text x="259.375" y="280.35" text-anchor="middle" style="font-family:DejaVu Sans, Arial, sans-serif;font-size:19px;font-weight:400;fill:#111;"><tspan x="259.375" dy="0">Quản lý người dùng</tspan><tspan x="259.375" dy="23.75">- Tạo tài khoản</tspan><tspan x="259.375" dy="23.75">- Đăng nhập</tspan><tspan x="259.375" dy="23.75">- Lưu lịch sử</tspan></text><line x1="850.0" y1="170" x2="259.375" y2="250" stroke="#111" stroke-width="2" fill="none" marker-end="url(#arrow)"/><rect x="473.75" y="250" width="358.75" height="74" rx="6" fill="#fff" stroke="#111" stroke-width="2"/><text x="653.125" y="280.35" text-anchor="middle" style="font-family:DejaVu Sans, Arial, sans-serif;font-size:19px;font-weight:400;fill:#111;"><tspan x="653.125" dy="0">Quản lý nguồn dữ liệu</tspan><tspan x="653.125" dy="23.75">- Video</tspan><tspan x="653.125" dy="23.75">- Camera</tspan><tspan x="653.125" dy="23.75">- Kiểm tra nguồn</tspan></text><line x1="850.0" y1="170" x2="653.125" y2="250" stroke="#111" stroke-width="2" fill="none" marker-end="url(#arrow)"/><rect x="867.5" y="250" width="358.75" height="74" rx="6" fill="#fff" stroke="#111" stroke-width="2"/><text x="1046.875" y="280.35" text-anchor="middle" style="font-family:DejaVu Sans, Arial, sans-serif;font-size:19px;font-weight:400;fill:#111;"><tspan x="1046.875" dy="0">Xử lý video và AI</tspan><tspan x="1046.875" dy="23.75">- Đọc frame</tspan><tspan x="1046.875" dy="23.75">- Nhận diện</tspan><tspan x="1046.875" dy="23.75">- Đếm xe</tspan></text><line x1="850.0" y1="170" x2="1046.875" y2="250" stroke="#111" stroke-width="2" fill="none" marker-end="url(#arrow)"/><rect x="1261.25" y="250" width="358.75" height="74" rx="6" fill="#fff" stroke="#111" stroke-width="2"/><text x="1440.625" y="280.35" text-anchor="middle" style="font-family:DejaVu Sans, Arial, sans-serif;font-size:19px;font-weight:400;fill:#111;"><tspan x="1440.625" dy="0">Cấu hình ROI và làn đường</tspan><tspan x="1440.625" dy="23.75">- Vẽ ROI</tspan><tspan x="1440.625" dy="23.75">- Chia làn</tspan><tspan x="1440.625" dy="23.75">- Lọc xe</tspan></text><line x1="850.0" y1="170" x2="1440.625" y2="250" stroke="#111" stroke-width="2" fill="none" marker-end="url(#arrow)"/><rect x="80.0" y="366" width="358.75" height="74" rx="6" fill="#fff" stroke="#111" stroke-width="2"/><text x="259.375" y="396.35" text-anchor="middle" style="font-family:DejaVu Sans, Arial, sans-serif;font-size:19px;font-weight:400;fill:#111;"><tspan x="259.375" dy="0">Đo tốc độ phương tiện</tspan><tspan x="259.375" dy="23.75">- Theo dõi xe</tspan><tspan x="259.375" dy="23.75">- Vạch A-B</tspan><tspan x="259.375" dy="23.75">- Ước lượng tốc độ</tspan></text><line x1="850.0" y1="170" x2="259.375" y2="366" stroke="#111" stroke-width="2" fill="none" marker-end="url(#arrow)"/><rect x="473.75" y="366" width="358.75" height="74" rx="6" fill="#fff" stroke="#111" stroke-width="2"/><text x="653.125" y="396.35" text-anchor="middle" style="font-family:DejaVu Sans, Arial, sans-serif;font-size:19px;font-weight:400;fill:#111;"><tspan x="653.125" dy="0">Tính tốc độ VSL</tspan><tspan x="653.125" dy="23.75">- Mật độ</tspan><tspan x="653.125" dy="23.75">- Thời tiết</tspan><tspan x="653.125" dy="23.75">- Sự cố</tspan></text><line x1="850.0" y1="170" x2="653.125" y2="366" stroke="#111" stroke-width="2" fill="none" marker-end="url(#arrow)"/><rect x="867.5" y="366" width="358.75" height="74" rx="6" fill="#fff" stroke="#111" stroke-width="2"/><text x="1046.875" y="396.35" text-anchor="middle" style="font-family:DejaVu Sans, Arial, sans-serif;font-size:19px;font-weight:400;fill:#111;"><tspan x="1046.875" dy="0">Điều khiển biển báo</tspan><tspan x="1046.875" dy="23.75">- Tạo lệnh</tspan><tspan x="1046.875" dy="23.75">- Gửi MQTT</tspan><tspan x="1046.875" dy="23.75">- Cập nhật biển báo</tspan></text><line x1="850.0" y1="170" x2="1046.875" y2="366" stroke="#111" stroke-width="2" fill="none" marker-end="url(#arrow)"/><rect x="1261.25" y="366" width="358.75" height="74" rx="6" fill="#fff" stroke="#111" stroke-width="2"/><text x="1440.625" y="396.35" text-anchor="middle" style="font-family:DejaVu Sans, Arial, sans-serif;font-size:19px;font-weight:400;fill:#111;"><tspan x="1440.625" dy="0">Báo cáo và kiểm thử</tspan><tspan x="1440.625" dy="23.75">- Lưu dữ liệu</tspan><tspan x="1440.625" dy="23.75">- Xuất báo cáo</tspan><tspan x="1440.625" dy="23.75">- So sánh kết quả</tspan></text><line x1="850.0" y1="170" x2="1440.625" y2="366" stroke="#111" stroke-width="2" fill="none" marker-end="url(#arrow)"/>
</svg>