<?xml version="1.0" encoding="UTF-8"?>
<svg xmlns="http://www.w3.org/2000/svg" width="1550" height="900" viewBox="0 0 1550 900">
<defs>
        <marker id="arrow" markerWidth="12" markerHeight="12" refX="10" refY="6" orient="auto" markerUnits="strokeWidth">
            <path d="M2,2 L10,6 L2,10 z" fill="#111" />
        </marker>
        <marker id="arrowGray" markerWidth="12" markerHeight="12" refX="10" refY="6" orient="auto" markerUnits="strokeWidth">
            <path d="M2,2 L10,6 L2,10 z" fill="#555" />
        </marker>
        <filter id="shadow" x="-20%" y="-20%" width="140%" height="140%">
            <feDropShadow dx="0" dy="2" stdDeviation="2" flood-color="#000" flood-opacity="0.12"/>
        </filter>
        </defs>
<rect width="100%" height="100%" fill="#fff"/>
<text x="775.0" y="42" text-anchor="middle" style="font-family:DejaVu Sans, Arial, sans-serif;font-size:25px;font-weight:700;fill:#111;"><tspan x="775.0" dy="0">Hình 2.6. Biểu đồ phân rã chức năng nhận diện phương tiện</tspan></text><line x1="80" y1="68" x2="1470" y2="68" stroke="#444" stroke-width="1" fill="none"/><rect x="545.0" y="100" width="460" height="70" rx="6" fill="#f7f7f7" stroke="#111" stroke-width="2"/><text x="775.0" y="127.3" text-anchor="middle" style="font-family:DejaVu Sans, Arial, sans-serif;font-size:22px;font-weight:700;fill:#111;"><tspan x="775.0" dy="0">Nhận diện phương tiện</tspan></text><rect x="80.0" y="250" width="440.0" height="74" rx="6" fill="#fff" stroke="#111" stroke-width="2"/><text x="300.0" y="280.35" text-anchor="middle" style="font-family:DejaVu Sans, Arial, sans-serif;font-size:19px;font-weight:400;fill:#111;"><tspan x="300.0" dy="0">Đọc khung hình</tspan></text><line x1="775.0" y1="170" x2="300.0" y2="250" stroke="#111" stroke-width="2" fill="none" marker-end="url(#arrow)"/><rect x="555.0" y="250" width="440.0" height="74" rx="6" fill="#fff" stroke="#111" stroke-width="2"/><text x="775.0" y="280.35" text-anchor="middle" style="font-family:DejaVu Sans, Arial, sans-serif;font-size:19px;font-weight:400;fill:#111;"><tspan x="775.0" dy="0">Đưa ảnh vào mô hình AI</tspan></text><line x1="775.0" y1="170" x2="775.0" y2="250" stroke="#111" stroke-width="2" fill="none" marker-end="url(#arrow)"/><rect x="1030.0" y="250" width="440.0" height="74" rx="6" fill="#fff" stroke="#111" stroke-width="2"/><text x="1250.0" y="280.35" text-anchor="middle" style="font-family:DejaVu Sans, Arial, sans-serif;font-size:19px;font-weight:400;fill:#111;"><tspan x="1250.0" dy="0">Phát hiện phương tiện</tspan></text><line x1="775.0" y1="170" x2="1250.0" y2="250" stroke="#111" stroke-width="2" fill="none" marker-end="url(#arrow)"/><rect x="80.0" y="366" width="440.0" height="74" rx="6" fill="#fff" stroke="#111" stroke-width="2"/><text x="300.0" y="396.35" text-anchor="middle" style="font-family:DejaVu Sans, Arial, sans-serif;font-size:19px;font-weight:400;fill:#111;"><tspan x="300.0" dy="0">Lọc theo loại xe</tspan></text><line x1="775.0" y1="170" x2="300.0" y2="366" stroke="#111" stroke-width="2" fill="none" marker-end="url(#arrow)"/><rect x="555.0" y="366" width="440.0" height="74" rx="6" fill="#fff" stroke="#111" stroke-width="2"/><text x="775.0" y="396.35" text-anchor="middle" style="font-family:DejaVu Sans, Arial, sans-serif;font-size:19px;font-weight:400;fill:#111;"><tspan x="775.0" dy="0">Xác định bounding box</tspan></text><line x1="775.0" y1="170" x2="775.0" y2="366" stroke="#111" stroke-width="2" fill="none" marker-end="url(#arrow)"/><rect x="1030.0" y="366" width="440.0" height="74" rx="6" fill="#fff" stroke="#111" stroke-width="2"/><text x="1250.0" y="396.35" text-anchor="middle" style="font-family:DejaVu Sans, Arial, sans-serif;font-size:19px;font-weight:400;fill:#111;"><tspan x="1250.0" dy="0">Tính độ tin cậy</tspan></text><line x1="775.0" y1="170" x2="1250.0" y2="366" stroke="#111" stroke-width="2" fill="none" marker-end="url(#arrow)"/><rect x="80.0" y="482" width="440.0" height="74" rx="6" fill="#fff" stroke="#111" stroke-width="2"/><text x="300.0" y="512.35" text-anchor="middle" style="font-family:DejaVu Sans, Arial, sans-serif;font-size:19px;font-weight:400;fill:#111;"><tspan x="300.0" dy="0">Đếm số xe</tspan></text><line x1="775.0" y1="170" x2="300.0" y2="482" stroke="#111" stroke-width="2" fill="none" marker-end="url(#arrow)"/><rect x="555.0" y="482" width="440.0" height="74" rx="6" fill="#fff" stroke="#111" stroke-width="2"/><text x="775.0" y="512.35" text-anchor="middle" style="font-family:DejaVu Sans, Arial, sans-serif;font-size:19px;font-weight:400;fill:#111;"><tspan x="775.0" dy="0">Phân loại xe</tspan></text><line x1="775.0" y1="170" x2="775.0" y2="482" stroke="#111" stroke-width="2" fill="none" marker-end="url(#arrow)"/>
</svg>