<?xml version="1.0" encoding="UTF-8"?>
<svg xmlns="http://www.w3.org/2000/svg" width="1500" height="1000" viewBox="0 0 1500 1000">
<defs>
        <marker id="arrow" markerWidth="12" markerHeight="12" refX="10" refY="6" orient="auto" markerUnits="strokeWidth">
            <path d="M2,2 L10,6 L2,10 z" fill="#111" />
        </marker>
        <marker id="arrowGray" markerWidth="12" markerHeight="12" refX="10" refY="6" orient="auto" markerUnits="strokeWidth">
            <path d="M2,2 L10,6 L2,10 z" fill="#555" />
        </marker>
        <filter id="shadow" x="-20%" y="-20%" width="140%" height="140%">
            <feDropShadow dx="0" dy="2" stdDeviation="2" flood-color="#000" flood-opacity="0.12"/>
        </filter>
        </defs>
<rect width="100%" height="100%" fill="#fff"/>
<text x="750.0" y="42" text-anchor="middle" style="font-family:DejaVu Sans, Arial, sans-serif;font-size:25px;font-weight:700;fill:#111;"><tspan x="750.0" dy="0">Hình 2.36. Minh họa vùng ROI và chia làn</tspan></text><line x1="80" y1="68" x2="1420" y2="68" stroke="#444" stroke-width="1" fill="none"/><rect x="120" y="120" width="1260" height="760" rx="4" fill="#fafafa" stroke="#111" stroke-width="2"/><text x="750.0" y="492.3" text-anchor="middle" style="font-family:DejaVu Sans, Arial, sans-serif;font-size:22px;font-weight:700;fill:#111;"><tspan x="750.0" dy="0">Khung video camera</tspan></text><polygon points="470,240 1030,240 1260,800 250,800" fill="#f2f2f2" stroke="#111" stroke-width="3"/><line x1="654.8" y1="240" x2="583.3" y2="800" stroke="#555" stroke-width="2" fill="none" stroke-dasharray="8 6"/><line x1="839.6" y1="240" x2="916.6" y2="800" stroke="#555" stroke-width="2" fill="none" stroke-dasharray="8 6"/><text x="750" y="210" text-anchor="middle" style="font-family:DejaVu Sans, Arial, sans-serif;font-size:24px;font-weight:700;fill:#111;"><tspan x="750" dy="0">ROI - vùng giám sát</tspan></text><text x="410" y="520" text-anchor="middle" style="font-family:DejaVu Sans, Arial, sans-serif;font-size:20px;font-weight:400;fill:#111;"><tspan x="410" dy="0">Làn 1</tspan></text><text x="750" y="520" text-anchor="middle" style="font-family:DejaVu Sans, Arial, sans-serif;font-size:20px;font-weight:400;fill:#111;"><tspan x="750" dy="0">Làn 2</tspan></text><text x="1090" y="520" text-anchor="middle" style="font-family:DejaVu Sans, Arial, sans-serif;font-size:20px;font-weight:400;fill:#111;"><tspan x="1090" dy="0">Làn 3</tspan></text><rect x="385" y="665" width="90" height="50" rx="10" fill="#fff" stroke="#111" stroke-width="2"/><text x="430" y="740" text-anchor="middle" style="font-family:DejaVu Sans, Arial, sans-serif;font-size:16px;font-weight:400;fill:#111;"><tspan x="430" dy="0">Xe trong ROI</tspan></text><rect x="735" y="595" width="90" height="50" rx="10" fill="#fff" stroke="#111" stroke-width="2"/><text x="780" y="670" text-anchor="middle" style="font-family:DejaVu Sans, Arial, sans-serif;font-size:16px;font-weight:400;fill:#111;"><tspan x="780" dy="0">Xe trong ROI</tspan></text><rect x="1065" y="675" width="90" height="50" rx="10" fill="#fff" stroke="#111" stroke-width="2"/><text x="1110" y="750" text-anchor="middle" style="font-family:DejaVu Sans, Arial, sans-serif;font-size:16px;font-weight:400;fill:#111;"><tspan x="1110" dy="0">Xe trong ROI</tspan></text><rect x="1305" y="335" width="90" height="50" rx="10" fill="#fff" stroke="#111" stroke-width="2"/><text x="1350" y="410" text-anchor="middle" style="font-family:DejaVu Sans, Arial, sans-serif;font-size:16px;font-weight:400;fill:#111;"><tspan x="1350" dy="0">Xe ngoài ROI</tspan></text><line x1="1290" y1="360" x2="1160" y2="520" stroke="#555" stroke-width="2" fill="none" marker-end="url(#arrow)" stroke-dasharray="8 6"/><text x="1320" y="470" text-anchor="start" style="font-family:DejaVu Sans, Arial, sans-serif;font-size:18px;font-weight:400;fill:#111;"><tspan x="1320" dy="0">Không tính vào</tspan><tspan x="1320" dy="22.5">mật độ</tspan></text>
</svg>