<?xml version="1.0" encoding="UTF-8"?>
<svg xmlns="http://www.w3.org/2000/svg" width="1300" height="1700" viewBox="0 0 1300 1700">
<defs>
        <marker id="arrow" markerWidth="12" markerHeight="12" refX="10" refY="6" orient="auto" markerUnits="strokeWidth">
            <path d="M2,2 L10,6 L2,10 z" fill="#111" />
        </marker>
        <marker id="arrowGray" markerWidth="12" markerHeight="12" refX="10" refY="6" orient="auto" markerUnits="strokeWidth">
            <path d="M2,2 L10,6 L2,10 z" fill="#555" />
        </marker>
        <filter id="shadow" x="-20%" y="-20%" width="140%" height="140%">
            <feDropShadow dx="0" dy="2" stdDeviation="2" flood-color="#000" flood-opacity="0.12"/>
        </filter>
        </defs>
<rect width="100%" height="100%" fill="#fff"/>
<text x="650.0" y="42" text-anchor="middle" style="font-family:DejaVu Sans, Arial, sans-serif;font-size:25px;font-weight:700;fill:#111;"><tspan x="650.0" dy="0">Hình 2.31. Biểu đồ hoạt động tính VSL</tspan></text><line x1="80" y1="68" x2="1220" y2="68" stroke="#444" stroke-width="1" fill="none"/><circle cx="650.0" cy="120" r="18" fill="#111" stroke="#111"/><rect x="440.0" y="190" width="420" height="62" rx="16" fill="#fff" stroke="#111" stroke-width="2"/><text x="650.0" y="214.7" text-anchor="middle" style="font-family:DejaVu Sans, Arial, sans-serif;font-size:18px;font-weight:400;fill:#111;"><tspan x="650.0" dy="0">Nhận số xe trong ROI</tspan></text><line x1="650.0" y1="138" x2="650.0" y2="190" stroke="#111" stroke-width="2" fill="none" marker-end="url(#arrow)"/><rect x="440.0" y="295" width="420" height="62" rx="16" fill="#fff" stroke="#111" stroke-width="2"/><text x="650.0" y="319.7" text-anchor="middle" style="font-family:DejaVu Sans, Arial, sans-serif;font-size:18px;font-weight:400;fill:#111;"><tspan x="650.0" dy="0">Tính mật độ</tspan></text><line x1="650.0" y1="252" x2="650.0" y2="295" stroke="#111" stroke-width="2" fill="none" marker-end="url(#arrow)"/><rect x="440.0" y="400" width="420" height="62" rx="16" fill="#fff" stroke="#111" stroke-width="2"/><text x="650.0" y="424.7" text-anchor="middle" style="font-family:DejaVu Sans, Arial, sans-serif;font-size:18px;font-weight:400;fill:#111;"><tspan x="650.0" dy="0">Tính tỷ lệ xe nặng</tspan></text><line x1="650.0" y1="357" x2="650.0" y2="400" stroke="#111" stroke-width="2" fill="none" marker-end="url(#arrow)"/><rect x="440.0" y="505" width="420" height="62" rx="16" fill="#fff" stroke="#111" stroke-width="2"/><text x="650.0" y="529.7" text-anchor="middle" style="font-family:DejaVu Sans, Arial, sans-serif;font-size:18px;font-weight:400;fill:#111;"><tspan x="650.0" dy="0">Xét thời tiết</tspan></text><line x1="650.0" y1="462" x2="650.0" y2="505" stroke="#111" stroke-width="2" fill="none" marker-end="url(#arrow)"/><rect x="440.0" y="610" width="420" height="62" rx="16" fill="#fff" stroke="#111" stroke-width="2"/><text x="650.0" y="634.7" text-anchor="middle" style="font-family:DejaVu Sans, Arial, sans-serif;font-size:18px;font-weight:400;fill:#111;"><tspan x="650.0" dy="0">Xét sự cố</tspan></text><line x1="650.0" y1="567" x2="650.0" y2="610" stroke="#111" stroke-width="2" fill="none" marker-end="url(#arrow)"/><rect x="440.0" y="715" width="420" height="62" rx="16" fill="#fff" stroke="#111" stroke-width="2"/><text x="650.0" y="739.7" text-anchor="middle" style="font-family:DejaVu Sans, Arial, sans-serif;font-size:18px;font-weight:400;fill:#111;"><tspan x="650.0" dy="0">Tính tốc độ khuyến nghị</tspan></text><line x1="650.0" y1="672" x2="650.0" y2="715" stroke="#111" stroke-width="2" fill="none" marker-end="url(#arrow)"/><polygon points="650.0,820 805.0,870.0 650.0,920 495.0,870.0" fill="#fff" stroke="#111" stroke-width="2"/><text x="650.0" y="864.05" text-anchor="middle" style="font-family:DejaVu Sans, Arial, sans-serif;font-size:17px;font-weight:400;fill:#111;"><tspan x="650.0" dy="0">Chế độ thủ công?</tspan></text><line x1="650.0" y1="777" x2="650.0" y2="820" stroke="#111" stroke-width="2" fill="none" marker-end="url(#arrow)"/><rect x="440.0" y="965" width="420" height="62" rx="16" fill="#fff" stroke="#111" stroke-width="2"/><text x="650.0" y="989.7" text-anchor="middle" style="font-family:DejaVu Sans, Arial, sans-serif;font-size:18px;font-weight:400;fill:#111;"><tspan x="650.0" dy="0">Giới hạn tốc độ</tspan></text><line x1="650.0" y1="920" x2="650.0" y2="965" stroke="#111" stroke-width="2" fill="none" marker-end="url(#arrow)"/><rect x="440.0" y="1070" width="420" height="62" rx="16" fill="#fff" stroke="#111" stroke-width="2"/><text x="650.0" y="1094.7" text-anchor="middle" style="font-family:DejaVu Sans, Arial, sans-serif;font-size:18px;font-weight:400;fill:#111;"><tspan x="650.0" dy="0">Hiển thị VSL</tspan></text><line x1="650.0" y1="1027" x2="650.0" y2="1070" stroke="#111" stroke-width="2" fill="none" marker-end="url(#arrow)"/><circle cx="650.0" cy="1175" r="20" fill="#fff" stroke="#111" stroke-width="2"/><circle cx="650.0" cy="1175" r="12" fill="#111" stroke="#111"/><line x1="650.0" y1="1132" x2="650.0" y2="1155" stroke="#111" stroke-width="2" fill="none" marker-end="url(#arrow)"/>
</svg>