<?xml version="1.0" encoding="UTF-8"?>
<svg xmlns="http://www.w3.org/2000/svg" width="1600" height="1050" viewBox="0 0 1600 1050">
<defs>
        <marker id="arrow" markerWidth="12" markerHeight="12" refX="10" refY="6" orient="auto" markerUnits="strokeWidth">
            <path d="M2,2 L10,6 L2,10 z" fill="#111" />
        </marker>
        <marker id="arrowGray" markerWidth="12" markerHeight="12" refX="10" refY="6" orient="auto" markerUnits="strokeWidth">
            <path d="M2,2 L10,6 L2,10 z" fill="#555" />
        </marker>
        <filter id="shadow" x="-20%" y="-20%" width="140%" height="140%">
            <feDropShadow dx="0" dy="2" stdDeviation="2" flood-color="#000" flood-opacity="0.12"/>
        </filter>
        </defs>
<rect width="100%" height="100%" fill="#fff"/>
<text x="800.0" y="42" text-anchor="middle" style="font-family:DejaVu Sans, Arial, sans-serif;font-size:25px;font-weight:700;fill:#111;"><tspan x="800.0" dy="0">Hình 2.39. Bố cục giao diện dashboard giám sát</tspan></text><line x1="80" y1="68" x2="1520" y2="68" stroke="#444" stroke-width="1" fill="none"/><rect x="120" y="120" width="1360" height="800" rx="4" fill="#fff" stroke="#111" stroke-width="2"/><rect x="120" y="120" width="1360" height="70" rx="4" fill="#f2f2f2" stroke="#111" stroke-width="2"/><text x="800.0" y="147.3" text-anchor="middle" style="font-family:DejaVu Sans, Arial, sans-serif;font-size:22px;font-weight:700;fill:#111;"><tspan x="800.0" dy="0">Thanh tiêu đề: Hệ thống biển báo tốc độ linh hoạt VSL</tspan></text><rect x="120" y="190" width="210" height="730" rx="0" fill="#fafafa" stroke="#111" stroke-width="2"/><text x="225.0" y="548.35" text-anchor="middle" style="font-family:DejaVu Sans, Arial, sans-serif;font-size:19px;font-weight:400;fill:#111;"><tspan x="225.0" dy="0">Thanh điều hướng</tspan><tspan x="225.0" dy="23.75">- Trang chính</tspan><tspan x="225.0" dy="23.75">- Nhận diện</tspan><tspan x="225.0" dy="23.75">- ROI</tspan><tspan x="225.0" dy="23.75">- VSL</tspan><tspan x="225.0" dy="23.75">- Báo cáo</tspan></text><rect x="350" y="220" width="710" height="470" rx="8" fill="#fff" stroke="#111" stroke-width="2"/><text x="705.0" y="447.3" text-anchor="middle" style="font-family:DejaVu Sans, Arial, sans-serif;font-size:22px;font-weight:700;fill:#111;"><tspan x="705.0" dy="0">Khu vực video</tspan><tspan x="705.0" dy="27.5">Video giao thông</tspan><tspan x="705.0" dy="27.5">Bounding box - ROI - Làn đường</tspan><tspan x="705.0" dy="27.5">Tốc độ xe</tspan></text><rect x="1085" y="220" width="360" height="220" rx="8" fill="#fff" stroke="#111" stroke-width="2"/><text x="1265.0" y="323.35" text-anchor="middle" style="font-family:DejaVu Sans, Arial, sans-serif;font-size:19px;font-weight:400;fill:#111;"><tspan x="1265.0" dy="0">Thẻ thống kê</tspan><tspan x="1265.0" dy="23.75">Số xe trong ROI</tspan><tspan x="1265.0" dy="23.75">Mật độ</tspan><tspan x="1265.0" dy="23.75">Trạng thái</tspan><tspan x="1265.0" dy="23.75">Tốc độ VSL</tspan></text><rect x="1085" y="470" width="360" height="220" rx="8" fill="#fff" stroke="#111" stroke-width="2"/><text x="1265.0" y="573.35" text-anchor="middle" style="font-family:DejaVu Sans, Arial, sans-serif;font-size:19px;font-weight:400;fill:#111;"><tspan x="1265.0" dy="0">Biển báo ảo</tspan><tspan x="1265.0" dy="23.75">Tốc độ khuyến nghị</tspan><tspan x="1265.0" dy="23.75">Mức ưu tiên</tspan><tspan x="1265.0" dy="23.75">Lý do đề xuất</tspan></text><rect x="350" y="720" width="520" height="170" rx="8" fill="#fff" stroke="#111" stroke-width="2"/><text x="610.0" y="798.35" text-anchor="middle" style="font-family:DejaVu Sans, Arial, sans-serif;font-size:19px;font-weight:400;fill:#111;"><tspan x="610.0" dy="0">Cấu hình</tspan><tspan x="610.0" dy="23.75">Thời tiết - Sự cố - Tự động/Thủ công</tspan></text><rect x="900" y="720" width="545" height="170" rx="8" fill="#fff" stroke="#111" stroke-width="2"/><text x="1172.5" y="798.35" text-anchor="middle" style="font-family:DejaVu Sans, Arial, sans-serif;font-size:19px;font-weight:400;fill:#111;"><tspan x="1172.5" dy="0">Báo cáo và nhật ký</tspan><tspan x="1172.5" dy="23.75">Xuất CSV/HTML</tspan><tspan x="1172.5" dy="23.75">Log hệ thống</tspan></text>
</svg>